/* XPM */
static char *empirelogo[] = {
/* columns rows colors chars-per-pixel */
"64 64 254 2",
"   c black",
".  c #010101",
"X  c #020202",
"o  c #040505",
"O  c #050606",
"+  c #060707",
"@  c #070808",
"#  c #080909",
"$  c #080A0A",
"%  c #090B0B",
"&  c #0A0C0C",
"*  c #0B0D0D",
"=  c #0B0E0E",
"-  c #0C0F0F",
";  c #0D1010",
":  c #0E1111",
">  c #0F1212",
",  c #0F1313",
"<  c #101414",
"1  c #111515",
"2  c #121616",
"3  c #131717",
"4  c #131818",
"5  c #141919",
"6  c #151A1A",
"7  c #161B1B",
"8  c #171C1C",
"9  c #171D1D",
"0  c #181E1E",
"q  c #191F1F",
"w  c #1A2020",
"e  c #1B2121",
"r  c #1B2222",
"t  c #1C2323",
"y  c #1D2424",
"u  c #1E2525",
"i  c #1E2626",
"p  c #1F2727",
"a  c #202828",
"s  c #212929",
"d  c #222A2A",
"f  c #222B2B",
"g  c #232C2C",
"h  c #242D2D",
"j  c #252E2E",
"k  c #262F2F",
"l  c #263030",
"z  c #273131",
"x  c #283232",
"c  c #293333",
"v  c #2A3434",
"b  c #2B3535",
"n  c #2B3636",
"m  c #2C3737",
"M  c #2D3838",
"N  c #2E3939",
"B  c #2E3A3A",
"V  c #2F3B3B",
"C  c #303C3C",
"Z  c #313D3D",
"A  c #323E3E",
"S  c #333F3F",
"D  c #334040",
"F  c #344141",
"G  c #354242",
"H  c #364343",
"J  c #364444",
"K  c #374545",
"L  c #384646",
"P  c #394747",
"I  c #3A4848",
"U  c #3A4949",
"Y  c #3B4A4A",
"T  c #3C4B4B",
"R  c #3D4C4C",
"E  c #3D4D4D",
"W  c #3E4E4E",
"Q  c #3F4F4F",
"!  c #405050",
"~  c #415151",
"^  c #425252",
"/  c #425353",
"(  c #435454",
")  c #445555",
"_  c #455656",
"`  c #455757",
"'  c #465858",
"]  c #475959",
"[  c #485A5A",
"{  c #495B5B",
"}  c #4A5C5C",
"|  c #4A5D5D",
" . c #4B5E5E",
".. c #4C5F5F",
"X. c #4D6060",
"o. c #4E6161",
"O. c #4E6262",
"+. c #4F6363",
"@. c #506464",
"#. c #516565",
"$. c #526666",
"%. c #526767",
"&. c #536868",
"*. c #546969",
"=. c #556A6A",
"-. c #566B6B",
";. c #566C6C",
":. c #576D6D",
">. c #586E6E",
",. c #596F6F",
"<. c #597070",
"1. c #5A7171",
"2. c #5B7272",
"3. c #5C7373",
"4. c #5D7474",
"5. c #5D7575",
"6. c #5E7676",
"7. c #5F7777",
"8. c #607878",
"9. c #617979",
"0. c #617A7A",
"q. c #627B7B",
"w. c #637C7C",
"e. c #647D7D",
"r. c #647E7E",
"t. c #667F7F",
"y. c #668080",
"u. c #678181",
"i. c #688282",
"p. c #698383",
"a. c #698484",
"s. c #6A8585",
"d. c #6B8686",
"f. c #6C8787",
"g. c #6D8888",
"h. c #6D8989",
"j. c #6E8A8A",
"k. c #6F8B8B",
"l. c #708C8C",
"z. c #708D8D",
"x. c #718E8E",
"c. c #728F8F",
"v. c #739090",
"b. c #749191",
"n. c #749292",
"m. c #759393",
"M. c #769494",
"N. c #779595",
"B. c #789696",
"V. c #789797",
"C. c #799898",
"Z. c #7A9999",
"A. c #7B9A9A",
"S. c #7C9B9B",
"D. c #7C9C9C",
"F. c #7D9D9D",
"G. c #7E9E9E",
"H. c #7F9F9F",
"J. c #80A0A0",
"K. c #80A1A1",
"L. c #81A2A2",
"P. c #82A3A3",
"I. c #83A4A4",
"U. c #84A5A5",
"Y. c #84A6A6",
"T. c #85A7A7",
"R. c #86A8A8",
"E. c #87A9A9",
"W. c #87AAAA",
"Q. c #88ABAB",
"!. c #89ACAC",
"~. c #8AADAD",
"^. c #8BAEAE",
"/. c #8CAFAF",
"(. c #8CB0B0",
"). c #8DB1B1",
"_. c #8EB2B2",
"`. c #8FB3B3",
"'. c #90B4B4",
"]. c #90B5B5",
"[. c #91B6B6",
"{. c #92B7B7",
"}. c #93B8B8",
"|. c #94B9B9",
" X c #94BABA",
".X c #95BBBB",
"XX c #96BCBC",
"oX c #97BDBD",
"OX c #98BEBE",
"+X c #98BFBF",
"@X c #99C0C0",
"#X c #9AC1C1",
"$X c #9BC2C2",
"%X c #9CC3C3",
"&X c #9CC4C4",
"*X c #9DC5C5",
"=X c #9EC6C6",
"-X c #9FC7C7",
";X c #A0C8C8",
":X c #A0C9C9",
">X c #A1CACA",
",X c #A2CBCB",
"<X c #A3CCCC",
"1X c #A3CDCD",
"2X c #A4CECE",
"3X c #A5CFCF",
"4X c #A6D0D0",
"5X c #A7D1D1",
"6X c #A7D2D2",
"7X c #A8D3D3",
"8X c #A9D4D4",
"9X c #AAD5D5",
"0X c #ABD6D6",
"qX c #ACD7D7",
"wX c #ACD8D8",
"eX c #ADD9D9",
"rX c #AEDADA",
"tX c #AFDBDB",
"yX c #AFDCDC",
"uX c #B0DDDD",
"iX c #B1DEDE",
"pX c #B2DFDF",
"aX c #B3E0E0",
"sX c #B3E1E1",
"dX c #B4E2E2",
"fX c #B5E3E3",
"gX c #B6E4E4",
"hX c #B7E5E5",
"jX c #B7E6E6",
"kX c #B8E7E7",
"lX c #B9E8E8",
"zX c #BAE9E9",
"xX c #BBEAEA",
"cX c #BBEBEB",
"vX c #BCECEC",
"bX c #BDEDED",
"nX c #BEEEEE",
"mX c #BFEFEF",
"MX c #BFF0F0",
"NX c #C0F1F1",
"BX c #C1F2F2",
"VX c #C2F3F3",
"CX c #C3F4F4",
"ZX c #C3F5F5",
"AX c #C4F6F6",
"SX c #C5F7F7",
"DX c #C6F8F8",
"FX c #C7F9F9",
"GX c #C7FAFA",
"HX c #C8FBFB",
"JX c #C9FCFC",
"KX c #CAFDFD",
"LX c #CBFEFE",
"PX c #CBFFFF",
/* pixels */
"7.[ H X.&.e.8.1.J U H H W X.U D [ _ S [ 7.] 1.8.J ^ z D k U S H z X.a D U X.,.q.U B  .:.3.3.OX~.].NXOXB.XX1X1X~.p.k.z.u.u.e.F.*.",
"z.%.W X.:.3.a.*.] U S U k H H H J S W W 7. .%.,.S S S J J U S j U ^ S H 3.%.] ,.^ P p.8.p.B.K.E.].gX9X'.P.@XXXrXA.q.v.f.R.F.m.f.",
"z. . .%.7.^  .@.W %.S ] B B S S J g W z W  .v.a._ W v j ^ J S j H %.^ J X.^ ^ _ ! ^ z.S.8.z.OXR.E.].@XE.XX&XgX1XZ.%.X.8.7.8.v.a.",
"p.8.:.7.,.H T T W  . .( W V S B v a ^ H W _ +.a._ W _ B P j t j z j H _ B v H P  .X.%.f.d.k.).K.z.F.$X|.u.].ZX4Xf.8.1.%.8.1.8.%.",
"T.a.3.3.^ :.[ W W  .k _ D j J W v j X.U _ P 7.f. .J z T W H z W v j X.X.^ H g H 1. . .8.7.Z.Z.v.K.E.T.~.~.~.|.XXM.8.*.%.X.U 1.,.",
"K.M.e.%.7.3.^ W _ v m U B S X._ _ U %.7. ._ 8.m.H S H T W ^ T ] W _ %.*.8.^ ^ W W &.%.*.v.Z.Z.u.e.B.P.f.8.M.v.&X7.:.:.[ :.( ^ ^ ",
"@X{.m.*.%.1.[ ^ U B v U B H U S ^ J  .8.:.1.*.u.1.J J W ^ *._ %.8.%.%._  . .( v 7.&.7.7.8.Z.XXu.*.f.~.v.v.a.M.a.8.W &.:.&.J  .T ",
"@XsX1Xp.%.%.3.3.1.%.S k v k S B z _ ,.1. .:.] z.1.a.a. .[ :.8.1.v.e.S ^  .( [ &._  .z.z.;X@XXXK.f.M.u.Z.v.(.q.g.:.U B Q :.^ W :.",
"sX|.E.R.M.e.B.K.,.*. .j U j t k k m ,.W U [ ,.&.t.R.B.( T %.%. ._ 8._ H :.^ &. .&.u.P.H.P.Z.`.XXa.f.1.F.e.8.f.a.] v Q U [ ^ J 7.",
"E.G.m.Z.T.^.f.8.%.1.7.P j H S j u S _ ]  ._ X.e.d.T.M.s.( ^ S H %.:.^ %.:._ %.X.,.e.F.R.R.v.R.@Xf.F.F.M.a.[ 8.m.] H u S %.%. . .",
"T.B.8.e.S.E.K.*.*.z.K.T H D U a a _ T _ 8.e.:.,.B.t.k.m.e._ H _ u.1.,.e.m.7.( [ 7.8.Z.z.f.1.z.R.7.m.u.7.a.[ &.f.Q z H e B *.[ 7.",
"1X].|.M.k.E.m.7.k.M.T.8.H W ] z z S B [ *.a.,.B.d.%.e.I.t.' C ! ^ p.,.Z.M.F.F.8.e.8.3.e.e.q.u.Z.%.&.8.z.*.[  .&.%.J P k B T 7.1.",
"K.K.^.$Xm.K.].^.z.).K.M. ._ %.m ^ T W ,.S.'.e.8.e. .z.k.%.W  .^ 8.X.7.p.).M.F.a.z.1.M.f.1.).Z.m.*.*.B.:.u.&.:.W _ [ k U S k U W ",
"^.).@X-Xe.m.].E.S.F.e.e.z.,.7.p.X.j z C ! [ ^ @.I.B.k.M.%.6 a  .U *.B v D _ U W J *.B S m.).T.~.7.8.e.m.B.a.] ^ *.W S S z H j U ",
"K.|.OX].z.z.|.].).S.*.8.q.,.8.@XS.d.E.OX;XiXT.!  .S.S.'.HX% < %.*.7.PX-XiXiXyXrXSX1Xj u 7.f.{.@XS.&.p.a.u.k.[ U 1.W k a e j B W ",
"].].$X].v.|.1X;Xz.u.u.z.m.1.^.PXkXB.'.$X$X6XHXk.H 8.,.'.PX% + @.( f.;XZ.M.Z.Z.K.bXPX9 > u.p.F.].K.7.Z.a.a.8.^ W _ B B z u e e 6 ",
"T.E.|.T.z.E.-XT.8.Z.K.I.B.k.^.PX-X3.M.T.%.K.k.H S 8.z.T.PX1 % ,.7.%.T W U W X.^ 7.PX> * 8. .z.XXR.e.z.M.,.e.*.U T S z k k z a q ",
"'.K.,X'.K.XXvX].*.B.).{.p.d.OX|. .%.$XPXpXvX6Xo.P m.! Z.PXq q %.u q v H S _ q.+.u.PX  O X.,.*.F.F.3.d.u.*.X. .^ a j H z g a > % ",
"E.'.^.T.).|.|.S.7.d.S.OXM.E.K.].,.[ |.NX-XCXPXT ^ PXE.G.PXP m ^.v S P u a T H ( 7.PX    U 7.z.8.X.,.p.:.3.] ^ W S j 6 1 9 = 1 = ",
"T.^.G.S.-XOXOXc.7.8.8.F.].].HXPX-Xk.I.G.E.vXPX@.8.kXPXPXPXB.].9XV ,.PXT.^ W _ %.;XPX< < *.X.:.p.z.q.:.^ 7.m.e.q._ P k 1 j 1 1 + ",
"|.E.z.7.w.E.z.~.G.m.,.B.).|.;XPXPXCXNXNXPXPXiX,.3.B.HXPXCXbXpX%.V u.iXmX1XbXPXPXPX&Xv S ,.:.e.*.*.*.*.U [ a.7.a.m j z > < < * 3 ",
"^.T.B.X. .,.p.T.K.K.8.8.R.OX|.iX|.'.^.B.t.8.w.3.e.k.;XS.%.,.{ ! B &.m.u.^ J S U X.^ ^  .1.8.7.@.^ W J _ :.,.f.f.S u u q > 1 6 q ",
"f.T.K.3._ %.a.k.$XE.K.].G.OXE.OXR.k.G.t.8.S.w.w.z.8.T.t.@.e. .( W X.e.] B S D v W H  ._ p.X.*.[ T  .T X. .@.f.:.( H a j a > q u ",
"S W f.1.,.8.3.@.w.m.8.e.].rXbX$Xs.e.c.:.' *.k.M.3.! ,.z.@.S c d u a g e u H S B ] S U X.^ _ ! t 9 9 k ^ B J j H [ B u 1 1 = % O ",
"^ S ^ %.7.z.PXw.[ -XPXS.[ ^.PXPX1XsX,X^.,.~ Z.$X6X! T M.PXXX].^.XXXXF.k , B a B ,.] [ U &.a.m.7.d. . .{.S PXB k |.PXR.X.e.Z.    ",
"iXS.^ J _ |.PX8.%.iXPXI.z m.PXSXNXPXPXPX#.d s.PXPX:.a G.PXuXZ.d.1XPXFX6 6 X.v H J X._ ^ q.PXrXe.d.^ F.9X%.PX9 6 ].mXPX8.~.PX    ",
";XiX8Xz.X.^.PXf._ $XPXPX^ B.PXK.^.PXPXPX) d |.PXPXOXt ! E.kX3.C f.PXT.p k 8._ U ( %.U _  .PXW q  .%.&XT.f.PX* O X.K.PX6 T PX    ",
"8XXX1XHXSXvXPX8.%.$X1XPX].$XPX[ '.PXKXPX' ' PXKXOXPX! 8 ^.PXI.8.SXZXJ g ,.:.X.W W ,.*.S X.PX< + 3.d.v. .p.PX    B PXe.O H PX    ",
"SXNX|.k.PXPXPXu.T G.].PXPXbX|. .4XPXKXPX8.8.PXc.%.PX1X6 8.PXqXLXmX:.v X.u.8.1.J J ^ ^ J f.PXk O P _ J [ U PX    %.PXO % W PX    ",
"gXPX1X@XOXPXPX8.H ,.I.iXPXNX7.8.NXPXPXPXR.;XPXH %.$XPXC ' |.LXSXz.U _ a.z.7.[ U S U H *.f.PX8XS ^ W  .^ M.PX  6 gXK.  e U PX    ",
"XX6XOXT.F.zXPX~._ @.c.$XPXSXk.d.NXPXPXPXSXPX-X{  .d.PX/.l.PXPX1XW ( _ 1.^ H H ] k H m %. .S.zXuXsXZXPXNXPXPX_ k PX3.O z q PXX.> ",
"^.|.iX4XT.;XzXF.%.8.T.9XkXOXm.E.$X$XI.OX%X^.#.%.s.M.S.8.p.+X^.s.( U  .1.U a a B _ U ^ z q J v a v 6 g j u z e u a t a 9 q 1 1 6 ",
";X6X;X;XE.|.k.K.K.Z.&XbX9X^.z.M.6XS.G.T.{.Z.W @.OXm.*.m.d.].B.e.e.X. .&.W u 9 > S  .H m u J t j t H j j S g H e J v H e 4 6 e j ",
"OXbXPXkXT.T.d.F.E.B.6XPX@X&XG.8.|.].R.@X$X8.t ^ B.K.B.k.f.B.].E.7.R B S j e > O > a  .! a t j U 3.%.P B , e p D e k v P S u V V ",
"9XpX9X&XT.K.:.c.SXa.kXSXB.;XPXG.z.].^.pXNXXXS S uXsX;XPXB.,.].&XPX-X@XOX{.T.z.A.^ 6 ! C _ j J H U 7.T z v g S u W V J U k 9 e ( ",
"@X8XSX6X|.OXd.&XPXPXgXOXm.6XPXK.d.9XPXPXPXPX_ S T.uXHXPX3.[ $X,XiX].`.~.R.k.e.a.[ 1 j ! _  .^ T U P _ ! S k g B a J Q  .k p k H ",
"rXbX,X|.F.$XK.E.kXPXPXSXz.@XPX).m.NXPX1XPXPXo.c B.1XHXPX3.[ 9XOX).f.+.^ J S 4 9 P m u H %.t.[ @.%.*.,.%. .^ a H J P %.a.( H S B ",
"8XOX6X).S.$X6XPXPX].sXPXiXbXPX|.c.,XXX,XPXPX@.H T.G.,XPX8.3.].S.K.zX`.R.~.A.e 6 [ T z d S [ ,.%.*.8.7.[ _ ] P H  .:.1.q.( X. .D ",
";X$X).K.8.F.-XSXPXPX9XkXPXPXPX|.G.{.E.-XPXPX@.%.PXrX{.PXS.w.NX$XXXgX1X-X;XXXB , H T C z %._ %. .7.1.1.[ ,.u._ S B U k.*.W R [ ( ",
"].c.~.K.8.p.B.T.].PXPXCXPXPXPX~.Z.,XOXkXkXPX8.*.uXPXPXPX$X6XPX6X8X].T.P.H.m.W J a 1 ( ! C  .@._ *.%.! X.,.3._ B S T W ]  .&.&.X.",
"G.e.F.|.p.8.8.e.F.OX4X&X$XSXPX;XS.vXuXgX;XPXOXk.1XiXPXPXPXSX$XkXPXgXiXFXPXNXkXNX*.1 U C ! W *.3.*.:.%.1.d.&.+.U S z  .S  .H :.^ ",
"6X~.).|.B.I.,.^ 7.F.).8XrXiX1XT.{.XXvXpXT.S.z.G.S.$X6X].T.].{.iXkX'.8.8.f.:.W B j H 1.@.S W ( _ ,.e.X.X.,.[ W ] m J B P z H ] z ",
"NX6X].$X-XK.%.W d.a.S.~.|.{.@X&X$XOX-X+Xt.M.B.OXI.m.G.^.].S.zX&X&XP.*.q.8.1.H j ^ 1.*.%.[ W H  .%.( 7._ ( %.D J J H S %.U P P 4 ",
"|.$XbXsXT.a.*.^ %.,.e.8.e.8.F.m.G.uXvXG.G.3.M.@X|.6X^.B.m.|.|.6X~.a.] %.f.d.U e e H X.P z C _ a r ^ *.^ u v J k H W W *.U D S u ",
"OXT.9XHX1X1X@XE.OXiX9XrXiXbXiXB.e.'.NXNXkXt.%.9X8XPXPXT.S.$XrXsXOX$X$Xz.7.&XM.7.v H PX8X8. .].8 = ^ z.XX6 > a g j  .X.X.z W S J ",
"$XT.SXPXkXSXPX1X1XSX6X1XNXPXPXd.7.PXPXPXPX3. .I.|.PXPXZ.3.vXPXPXNXPXPX .f.PX8Xz.P W zXPXPXzXPX< % 7.HXPXe   B v g H 1.^ v m v U ",
"sX1XzXPX;X;XPX^.m.SX).F.HXPXsXa.-XPXZ.sXPX8._ |.F.rXPXS.a.gXPXPX1XZXPXU u.PX7.a H :.q.a.PXPXPXt e @XPXPXZ.  + g , p p W H H S D ",
"HXNXZXPXR.vXPXB.E.PXzXiXPXkX^.S.].E.p.OXPXe.,.'.7.1XPXOXE.9XrX6X).FXPXB 3.PXU 1 W ] W f.PXPXPXz ] PXsXR.PXO   > e > 4 > u S u z ",
"PXPXSXrXK.kXPXT.m.bXsXPXCXS.e.].~.^.m.1XPXz.p.PX&X).PXuX;XzXiX-X].PXPXP m.PX7.a W _ [ z.PXPXPX .%.PXW J PX|.  % 1 u > a g k J v ",
"HXPXCX].u.rXPXe.8.-XPXPX].8.e.).6X1XK.zXPXF.z.zXPXPXPXvXsXPXgX).].PXPX[ d.PXsXp.S ^ XXiXPXPXPXz.].bX% u 7.PX    * 1 v u 4 k H :.",
"kXPXNX'.e.~.PX).1.PXPXHXm.p.T.@X9X;X;XPXPXOX*.T.PXPXPXPXbXsXCX$XE.;XPXK.d.bXHXbXz.*.PXPX1Xm.PXmXvXM.6 u %.FX&.9 B q ^ W D W ] ] ",
"vXvX&XOXe.a.8.*.z.;X8X].1X6X'.~.zXkXHXPXSX$XT.'.;X&XOX$XB.|.HXE.B.;X-Xz.M.XXF.e.,.m.a.*.*.:.k.f.7.m e B B B 4 e U v v &.u.B.8.+.",
"kXOX@X@Xf.X.U %.^.R.OX9X1X1XiX@XuX6XiXkX1XvX$X].OX'.T.8X^.].vXB.K.).OXB.m.d.e.X.7.z.p.d.1.a.1.7.%._ _ H m B 4 6 [ B ] S a.T.e.a.",
"OX).|.E.F.a.P  .B.).OX,X-X&X].&X~.K.|.|.OXHXvXiXiX,XT.-X;X1X].M.K.|.F.f.p.m.e.3.,.*.k.e.f.M.g.f.*.8.8.3.J S v k X.*.v D ^ 1.3.Z.",
"1XT.).F.z.m.W ^ k.1X$X|.~.&XrX;XOXm.w.'.iXvXkX,XNXNXOX-XsX6XOXS.u.M.OXB.T.|.e.p.e.M.f.p.8.Z.a.).u.f.|.].@.W S v 8.W P k u.M.M.B.",
"].|.&XT.z.M.%.8.].|.|.T.sX;X|.SXNX'.p.K.$XNX,X9XgXNX4XsXPXvXuXG.p.u.~.F.m.z. .m.^.|.m.d.F.m.Z.@X).G.].@Xp.p.] X.&.J _ W  .e.7.f.",
"XX^.rXXX1.1. .*.&X$X-X).6XpX6XiXsXgXM.T.6XuX$X|.kX1XsXgXCX1XsX-Xp.d.a.~.|.f.%.K.Z.W.T.Z.{.XX).~.Z.~.|.T.z.~.v.8.U J W X.^ M.X.z.",
").F.@X).7.[ _ &.&X6XNXvXPXkXuX6XOXiXOX{.OXS.$X].,X$X,XCXsX6XNX6X8XP.R.].1X8.[ p.XX$XR.).K.P.P.XX{.`.4XH.T.-Xz.p.%.Q %.X.e.p.f.&.",
").F.F.Z.1.&.[ 8.K.|.uXkXSXbXkXsX'.'.$X{.E.d.F.XX4X9X-XNX9X$XPX8X8XrXOX|.^.8. .m.&X{.rXP.R.Z.R.gX;X4XXX).^.~.4XT.*.%.7.*.a.3.F.e.",
"~.f.Z.S.X.7._ ,.E.OXrXkXvX9XvXHX{.E.4X,X'.E.6X;X-X$XpX9X&X1X9XuX1XrX1X~.e.3.3.m.Z.R.@XgX).].yXsX&XXXE.F.@X1XiX).F.B.:.u.F.z.Z.v.",
"F.7.u.p.3.8.8.,.E.T.^.sX-X6XCXuX4X9X'.1X$XT.-X,X4X,XuXuX$X{.1X8X$X1X$X^.z.f.*.d.A.&X&XXX;X4XgXyXgX~.a.f.K.8X@XrX;XrXM.B.S.q.e.e.",
"m.M.*.%.! *.f.d.'.T.OX$X;X|.9XuXuXuX-X{.I.S.{.pXvXpX9XqX1X1XiXOX&X9X'.m.^.T.B.k.M.P.|.1XiXbXNXzXzX@Xu.k.`.;X4X&X$XsX).F.K.Z.Z.u.",
"e.v.@.*.,.8.*.E.G.S.,X-X9X1X$X$X^.4XpX-XT.G.pX4X|.uXvXpXI.].pX;XpXOXT.T.).Z.p.K.A.(.M.P.cXPXFXmX@X4X).H.@X8X8X6X@XrX1XK.f.z.m.z.",
",.f.%.^ p.u.p.m.K.E.|.{.].;XNXXXM.,X,XkX6X9X4X4XuX-XNXkXE.;X6XsX^.).,X;X-XE.B.1XrX{.A.F.-XmXPXyX$XiXyX@X4XzX8XsXiXrXgXa.e.8.7.F."
};
