/* XPM */
static char * gsp16_xpm[] = {
"16 16 125 2",
"  	c None",
". 	c #525252",
"+ 	c #4A4A4A",
"@ 	c #606060",
"# 	c #747474",
"$ 	c #6C6C6C",
"% 	c #919191",
"& 	c #B5B5B5",
"* 	c #929292",
"= 	c #616161",
"- 	c #494949",
"; 	c #464646",
"> 	c #636363",
", 	c #838383",
"' 	c #AEAEAE",
") 	c #B4B4B4",
"! 	c #7F7F7F",
"~ 	c #505050",
"{ 	c #585858",
"] 	c #666666",
"^ 	c #828282",
"/ 	c #5A5A5A",
"( 	c #6E6E6E",
"_ 	c #8A8A8A",
": 	c #BCBCBC",
"< 	c #BABABA",
"[ 	c #595959",
"} 	c #909090",
"| 	c #717171",
"1 	c #626262",
"2 	c #737373",
"3 	c #6B6B6B",
"4 	c #A0A0A0",
"5 	c #959595",
"6 	c #888888",
"7 	c #A2A2A2",
"8 	c #A5A5A5",
"9 	c #9E9E9E",
"0 	c #939393",
"a 	c #787878",
"b 	c #646464",
"c 	c #4B4B4B",
"d 	c #676767",
"e 	c #A1A1A1",
"f 	c #999999",
"g 	c #8E8E8E",
"h 	c #9B9B9B",
"i 	c #5E5E5E",
"j 	c #575757",
"k 	c #7B7B7B",
"l 	c #4E4E4E",
"m 	c #AAAAAA",
"n 	c #B6B6B6",
"o 	c #7A7A7A",
"p 	c #8B8B8B",
"q 	c #8C8C8C",
"r 	c #797979",
"s 	c #6A6A6A",
"t 	c #696969",
"u 	c #707070",
"v 	c #818181",
"w 	c #9D9D9D",
"x 	c #656565",
"y 	c #777777",
"z 	c #6D6D6D",
"A 	c #8D8D8D",
"B 	c #7E7E7E",
"C 	c #444444",
"D 	c #1B1B1B",
"E 	c #565656",
"F 	c #2F2F2F",
"G 	c #232323",
"H 	c #545454",
"I 	c #5F5F5F",
"J 	c #292929",
"K 	c #2D2D2D",
"L 	c #262626",
"M 	c #767676",
"N 	c #2B2B2B",
"O 	c #323232",
"P 	c #A7A7A7",
"Q 	c #080808",
"R 	c #353535",
"S 	c #313131",
"T 	c #2A2A2A",
"U 	c #898989",
"V 	c #252525",
"W 	c #4C4C4C",
"X 	c #5C5C5C",
"Y 	c #161616",
"Z 	c #393939",
"` 	c #343434",
" .	c #2E2E2E",
"..	c #474747",
"+.	c #3C3C3C",
"@.	c #515151",
"#.	c #282828",
"$.	c #8F8F8F",
"%.	c #010101",
"&.	c #424242",
"*.	c #303030",
"=.	c #686868",
"-.	c #868686",
";.	c #A8A8A8",
">.	c #7C7C7C",
",.	c #848484",
"'.	c #878787",
").	c #979797",
"!.	c #989898",
"~.	c #A9A9A9",
"{.	c #9A9A9A",
"].	c #969696",
"^.	c #7D7D7D",
"/.	c #3F3F3F",
"(.	c #5B5B5B",
"_.	c #949494",
":.	c #858585",
"<.	c #555555",
"[.	c #6F6F6F",
"}.	c #333333",
"|.	c #4F4F4F",
"1.	c #3A3A3A",
"2.	c #3D3D3D",
"3.	c #3E3E3E",
"4.	c #727272",
". + @ # $ % & * = - ; > , ' ) ! ",
"~ ~ { ] ^ * % ^ / . ( , _ : < % ",
"[ ~ @ ! } | 1 2 3 ! 4 5 6 7 8 9 ",
"] { , 0 a b c d 5 e f ! g h * g ",
"i j k , $ > l 3 m n 0 o p ^ ! q ",
"r s @ t 2 o u v w 7 $ x y z 2 A ",
"B b C D E F u G H I J K L l M 7 ",
"! @ N O % P u Q ~ v R - S T j U ",
"x l V W q V 2 X Y Z `  .` ..+.= ",
"j @./ #.$.%.] t &.~ *.&.x / . r ",
"I t $.k =.-.e p k ;.>.o # @ 1 U ",
"2 ,.$.p s z '.).!.~.{.].$ E 2 * ",
"=.t 3 ^.H /.@.(.3 _.:.M <...1 3 ",
"M $ / [.= /.+.}.|.! _ o { 1.2.E ",
"y ,.= ] | > <.3.E 3 a ( { - - { ",
"_ } t a % q =.j M _ k 4.x c / # "};
