/* XPM */
static char * gsp32_xpm[] = {
"32 32 178 2",
"  	c None",
". 	c #616161",
"+ 	c #4E4E4E",
"@ 	c #4A4A4A",
"# 	c #525252",
"$ 	c #5C5C5C",
"% 	c #727272",
"& 	c #7E7E7E",
"* 	c #797979",
"= 	c #6C6C6C",
"- 	c #808080",
"; 	c #A1A1A1",
"> 	c #B7B7B7",
", 	c #BBBBBB",
"' 	c #A2A2A2",
") 	c #7F7F7F",
"! 	c #686868",
"~ 	c #575757",
"{ 	c #434343",
"] 	c #3E3E3E",
"^ 	c #565656",
"/ 	c #717171",
"( 	c #818181",
"_ 	c #8D8D8D",
": 	c #9E9E9E",
"< 	c #B3B3B3",
"[ 	c #A5A5A5",
"} 	c #868686",
"| 	c #777777",
"1 	c #555555",
"2 	c #444444",
"3 	c #424242",
"4 	c #6D6D6D",
"5 	c #696969",
"6 	c #707070",
"7 	c #858585",
"8 	c #9F9F9F",
"9 	c #AEAEAE",
"0 	c #B4B4B4",
"a 	c #848484",
"b 	c #585858",
"c 	c #494949",
"d 	c #5B5B5B",
"e 	c #6A6A6A",
"f 	c #767676",
"g 	c #898989",
"h 	c #A6A6A6",
"i 	c #C1C1C1",
"j 	c #C5C5C5",
"k 	c #AAAAAA",
"l 	c #464646",
"m 	c #474747",
"n 	c #515151",
"o 	c #595959",
"p 	c #606060",
"q 	c #828282",
"r 	c #929292",
"s 	c #9A9A9A",
"t 	c #9C9C9C",
"u 	c #A0A0A0",
"v 	c #959595",
"w 	c #656565",
"x 	c #4B4B4B",
"y 	c #505050",
"z 	c #676767",
"A 	c #747474",
"B 	c #787878",
"C 	c #7B7B7B",
"D 	c #909090",
"E 	c #B0B0B0",
"F 	c #CBCBCB",
"G 	c #C7C7C7",
"H 	c #939393",
"I 	c #5A5A5A",
"J 	c #5F5F5F",
"K 	c #949494",
"L 	c #888888",
"M 	c #5E5E5E",
"N 	c #8C8C8C",
"O 	c #B1B1B1",
"P 	c #C3C3C3",
"Q 	c #BCBCBC",
"R 	c #5D5D5D",
"S 	c #4C4C4C",
"T 	c #6E6E6E",
"U 	c #6F6F6F",
"V 	c #646464",
"W 	c #666666",
"X 	c #8F8F8F",
"Y 	c #ACACAC",
"Z 	c #A8A8A8",
"` 	c #ADADAD",
" .	c #535353",
"..	c #757575",
"+.	c #6B6B6B",
"@.	c #838383",
"#.	c #989898",
"$.	c #9B9B9B",
"%.	c #A3A3A3",
"&.	c #969696",
"*.	c #7A7A7A",
"=.	c #999999",
"-.	c #979797",
";.	c #878787",
">.	c #7C7C7C",
",.	c #8B8B8B",
"'.	c #545454",
").	c #737373",
"!.	c #A4A4A4",
"~.	c #919191",
"{.	c #4D4D4D",
"].	c #626262",
"^.	c #636363",
"/.	c #BABABA",
"(.	c #BFBFBF",
"_.	c #B9B9B9",
":.	c #B6B6B6",
"<.	c #8A8A8A",
"[.	c #343434",
"}.	c #1C1C1C",
"|.	c #232323",
"1.	c #1A1A1A",
"2.	c #272727",
"3.	c #323232",
"4.	c #181818",
"5.	c #1E1E1E",
"6.	c #383838",
"7.	c #8E8E8E",
"8.	c #333333",
"9.	c #0C0C0C",
"0.	c #0B0B0B",
"a.	c #2E2E2E",
"b.	c #1D1D1D",
"c.	c #2D2D2D",
"d.	c #030303",
"e.	c #080808",
"f.	c #393939",
"g.	c #010101",
"h.	c #060606",
"i.	c #AFAFAF",
"j.	c #050505",
"k.	c #000000",
"l.	c #070707",
"m.	c #040404",
"n.	c #9D9D9D",
"o.	c #0E0E0E",
"p.	c #B5B5B5",
"q.	c #202020",
"r.	c #1F1F1F",
"s.	c #CFCFCF",
"t.	c #C0C0C0",
"u.	c #484848",
"v.	c #020202",
"w.	c #3D3D3D",
"x.	c #4F4F4F",
"y.	c #414141",
"z.	c #151515",
"A.	c #131313",
"B.	c #161616",
"C.	c #3C3C3C",
"D.	c #0A0A0A",
"E.	c #3F3F3F",
"F.	c #A7A7A7",
"G.	c #0D0D0D",
"H.	c #303030",
"I.	c #101010",
"J.	c #BEBEBE",
"K.	c #A9A9A9",
"L.	c #ABABAB",
"M.	c #373737",
"N.	c #363636",
"O.	c #404040",
"P.	c #3B3B3B",
"Q.	c #353535",
"R.	c #7D7D7D",
"S.	c #454545",
"T.	c #313131",
"U.	c #3A3A3A",
". + @ # $ % & * = = - ; > , ' ) ! ~ @ { ] { ^ / ( _ : < , [ } | ",
"1 2 3 @ # . = 4 5 6 7 8 9 0 ' a = b + @ c + d e f g h i j k g | ",
"1 l m n ^ o p 5 % q r s t u v & w # x y b z A B C D E F G E H - ",
"I @ + b I b J 6 ( r K L q } q A J y y M / g K N } v O P Q 0 ' D ",
"R S S 1 ~ $ e ( D v a T z U f A V $ W & H h [ D } X ; Y Z ` Z s ",
"5 # S  .M T ( D r g ..J ^ $ +.B f f @.v ' h #.7 ( _ $.: s %.' v ",
"A o # I T L &.r 7 *.4 $ + + M B L r =.: u -.;.>.q K : =.r #.#.,.",
"/ o '.p C =.t } ).4 ! M S 2 # A r h k !.8 _ & *.a t ; K N r ~.a ",
"w y {.I ).X ~.>.+.W ].d S 3 n f #.O > E %.N >.*.7 -.K a - N r L ",
"+.b ^ J 4 ) a C / T +.^.~ # ].a ' /.(.E t @.B *.a N ( 6 / - N g ",
"*.+.! ! W e / ..| >.C ).5 ! | r h _.:.' L / = A >.- A w e *.<.<.",
";.B % ! I '.I ^.W / *.( * f & ) ( K h <.].^ 1 R W | % W +.>._ r ",
"7 | 4 p y 2 [.}.|.] 1.2.q 4 3.4.] 5.6.7.8.9.0.a.b.}.I T T - -.%.",
"} | ! $ y c.d.1.T <.% e.=.f.g.3 } = h.i.p j.k.*.o l.m.4 +.) n.O ",
"<.B z R n o.k.+ T $.p.o i.q.k.r.A } ~ k z m.k._ V 0.k.1 $ = N h ",
"7 A . I c d.k.C L p.s.t.Z u.v.k.0.w.& @.V m.k.&.+ h.k. .l x.+.} ",
").V  .x.3 k.k.H -.].@ y.'.<.l z.k.k.A.f p j.k.l B.h.[.{.6.C.'.T ",
"! ^ @ S x j.k.: i.;.D.k.;.z K ( y e.k.d W j.k.).~ M  .l C.E.1 4 ",
"].{.m  .W 5.k.>.> F.k.k.Z }.& !.<.1.k.% U m.k.X ^.d ^ # m x.W >.",
"].@ @ J * 5 B.G.% = j.k.%.H.I.6 I D.4.:.S d.k.*.6 w ].$  .J B ,.",
"V + # = 7 D ) R @ x.+.K J.K >.d + ! p.; y ^ '.x.C e W p o W & _ ",
"= R z ) ~.&.7.q ) } N 7.~.%.9 K.s n.[ F.' L.k s & = p d d T ;.K ",
"..T >.7.r &.r a A U A & L s [ u #.' Y K.: ' !.s ) w b ~ ].>.H #.",
"A % - L } 7.~.7 e I I z A } 7.g L t k F.&.~.D g % I n ~ e a D N ",
"e W T / T *.a >.J u.{ S b z T e = a =.s g - C ).p + u.# w | * / ",
"= W w ].$ ! B C ].l M.N.] u.@ u.x.= g K <.( * T R c O.2 y $ ].].",
"A 6 +.p ~ $ 4 *.+.+ P.[.6.6.Q.8.O.M R.N _ L ) ).].S C.6.C.l # M ",
"| >.*.+.$ b ].).6 I @ { S.] [.T.y.R ).) <.<.q A w y E.Q.N.P.@ R ",
"6 - 7 B V b d e U V d b b @ w.U.@ M e / >.- B = M y l O.O.O.c I ",
"! @.D q +.M ].6 *.f 6 e ].y { O.y . ! e % % = W R '.+ x.# # b W ",
"/ ~.=.} T w 4 & <.7.g R.= b S + M % *.*.B 6 = 4 z I y x.b p +.B ",
"} ' : @.+.z / @.D t t X B V M W | D t -.,.B A * A M @ 3 x.p 6 R."};
