/* XPM */
static char * gsp48_xpm[] = {
"48 48 199 2",
"  	c None",
". 	c #686868",
"+ 	c #565656",
"@ 	c #4F4F4F",
"# 	c #4D4D4D",
"$ 	c #505050",
"% 	c #5E5E5E",
"& 	c #6B6B6B",
"* 	c #797979",
"= 	c #818181",
"- 	c #7A7A7A",
"; 	c #707070",
"> 	c #6A6A6A",
", 	c #6E6E6E",
"' 	c #7D7D7D",
") 	c #929292",
"! 	c #A7A7A7",
"~ 	c #B6B6B6",
"{ 	c #BDBDBD",
"] 	c #BABABA",
"^ 	c #A6A6A6",
"/ 	c #8E8E8E",
"( 	c #696969",
"_ 	c #545454",
": 	c #4A4A4A",
"< 	c #454545",
"[ 	c #414141",
"} 	c #3D3D3D",
"| 	c #444444",
"1 	c #535353",
"2 	c #656565",
"3 	c #777777",
"4 	c #838383",
"5 	c #898989",
"6 	c #919191",
"7 	c #9C9C9C",
"8 	c #A9A9A9",
"9 	c #B5B5B5",
"0 	c #BBBBBB",
"a 	c #B2B2B2",
"b 	c #A0A0A0",
"c 	c #8A8A8A",
"d 	c #7C7C7C",
"e 	c #787878",
"f 	c #5D5D5D",
"g 	c #4C4C4C",
"h 	c #434343",
"i 	c #464646",
"j 	c #525252",
"k 	c #737373",
"l 	c #747474",
"m 	c #717171",
"n 	c #6D6D6D",
"o 	c #909090",
"p 	c #A2A2A2",
"q 	c #B0B0B0",
"r 	c #B8B8B8",
"s 	c #A8A8A8",
"t 	c #939393",
"u 	c #808080",
"v 	c #6F6F6F",
"w 	c #626262",
"x 	c #585858",
"y 	c #474747",
"z 	c #484848",
"A 	c #606060",
"B 	c #7F7F7F",
"C 	c #8B8B8B",
"D 	c #ADADAD",
"E 	c #C2C2C2",
"F 	c #A3A3A3",
"G 	c #7B7B7B",
"H 	c #767676",
"I 	c #595959",
"J 	c #494949",
"K 	c #424242",
"L 	c #4B4B4B",
"M 	c #616161",
"N 	c #6C6C6C",
"O 	c #A1A1A1",
"P 	c #ABABAB",
"Q 	c #B1B1B1",
"R 	c #A4A4A4",
"S 	c #4E4E4E",
"T 	c #5C5C5C",
"U 	c #646464",
"V 	c #7E7E7E",
"W 	c #8D8D8D",
"X 	c #B7B7B7",
"Y 	c #C6C6C6",
"Z 	c #C8C8C8",
"` 	c #515151",
" .	c #555555",
"..	c #575757",
"+.	c #5A5A5A",
"@.	c #5F5F5F",
"#.	c #828282",
"$.	c #8F8F8F",
"%.	c #979797",
"&.	c #9E9E9E",
"*.	c #9A9A9A",
"=.	c #5B5B5B",
"-.	c #C0C0C0",
";.	c #CDCDCD",
">.	c #CACACA",
",.	c #ACACAC",
"'.	c #959595",
").	c #848484",
"!.	c #878787",
"~.	c #AFAFAF",
"{.	c #C1C1C1",
"].	c #C5C5C5",
"^.	c #9D9D9D",
"/.	c #949494",
"(.	c #727272",
"_.	c #989898",
":.	c #8C8C8C",
"<.	c #868686",
"[.	c #666666",
"}.	c #9B9B9B",
"|.	c #AEAEAE",
"1.	c #AAAAAA",
"2.	c #999999",
"3.	c #676767",
"4.	c #757575",
"5.	c #A5A5A5",
"6.	c #969696",
"7.	c #9F9F9F",
"8.	c #888888",
"9.	c #858585",
"0.	c #636363",
"a.	c #B9B9B9",
"b.	c #BEBEBE",
"c.	c #BCBCBC",
"d.	c #B4B4B4",
"e.	c #313131",
"f.	c #262626",
"g.	c #232323",
"h.	c #2C2C2C",
"i.	c #303030",
"j.	c #1D1D1D",
"k.	c #2B2B2B",
"l.	c #2A2A2A",
"m.	c #3F3F3F",
"n.	c #161616",
"o.	c #0F0F0F",
"p.	c #101010",
"q.	c #191919",
"r.	c #282828",
"s.	c #1E1E1E",
"t.	c #1A1A1A",
"u.	c #2E2E2E",
"v.	c #373737",
"w.	c #1B1B1B",
"x.	c #090909",
"y.	c #050505",
"z.	c #404040",
"A.	c #000000",
"B.	c #111111",
"C.	c #030303",
"D.	c #292929",
"E.	c #343434",
"F.	c #020202",
"G.	c #202020",
"H.	c #141414",
"I.	c #010101",
"J.	c #181818",
"K.	c #212121",
"L.	c #353535",
"M.	c #060606",
"N.	c #222222",
"O.	c #0E0E0E",
"P.	c #363636",
"Q.	c #040404",
"R.	c #2F2F2F",
"S.	c #080808",
"T.	c #151515",
"U.	c #393939",
"V.	c #131313",
"W.	c #3E3E3E",
"X.	c #C4C4C4",
"Y.	c #D0D0D0",
"Z.	c #242424",
"`.	c #272727",
" +	c #252525",
".+	c #2D2D2D",
"++	c #3A3A3A",
"@+	c #383838",
"#+	c #0C0C0C",
"$+	c #1F1F1F",
"%+	c #333333",
"&+	c #3B3B3B",
"*+	c #3C3C3C",
"=+	c #0D0D0D",
"-+	c #171717",
";+	c #0A0A0A",
">+	c #0B0B0B",
",+	c #121212",
"'+	c #323232",
". + @ # $ + % & * = = - ; > , ' ) ! ~ { ] ^ / * ( % _ : < [ } } | 1 2 3 4 5 6 7 8 9 0 a b c d e ",
"f g < h i g j f > k l m > . n d o p q r r s t u v w x @ : y h | z _ A n 3 B C 7 D 0 E ~ F c G H ",
"I J K K < L $ x M ( N & ( N l 4 t O P Q a R ) u v M + S L : : g j T U N l V W F X Y Z 0 ! W ' 3 ",
"x J | < L `  ...+.@.2 > v 3 #.$.%.7 &.p p *.C d ( =.` L g @ _ T 2 v l H e #.t P -.;.>.{ ,.'.).V ",
"T g z : $ ..I x x f U N 3 #.W '.'.) $.) t W 4 H U ..S g @ ..M n - ).).= B !.%.~.{.>.].0 q ^./ !.",
"@.S : # 1 +.=.x x % . l = W './.W 4 ' = 4 = G m w + @ $ x U (.= 6 _./.:.<.:._.,.0 {.] ~ a ^ *.) ",
"M $ L g ` ..x ..=.[.k #.W '.'.c G , ( n k 3 3 m U T +.A n d :.}.^ ! 7 $.<.5 ) O ,.|.P ,.~.1.b 2.",
"3._ # L S _ x f 2 (.u :.t /./ V v w T A 3.; 4.H , ( ( k u $.}.5.1.F 6.5 #.!.$.*.p F b R 8 ! 7.%.",
"m =.j # @  .@.. k #.:.) 6 W <.H ( T _  .T . m * * e G )./ 2.O 5.F _.:.#.B <.$.*.7.7 _.^.F p }.t ",
"* w ..` _ =.( * 8.t '.6 8.= - ; 2 I $ # $ T N G 9.C $.6.*.&.O &.%.c #.d B c '.^.^._.t 6.*.}.t C ",
"- U I _ ..M k !.6.7 %.C V 3 k N 2 =.@ z z _ [.- :.%.&.p O O 7.2.$.4 ' G u $.}.O &.'.$.) '.'.W <.",
"4.A + 1 x 0.3 :.7 &.) = (., > 3.0.T S < h S M * o 7.8 D 8 5.O %.c B - - #.6 7.O }.6 c / ) 6 C 4 ",
"& x @ # 1 % m ).t '.8.* N 3.2 0.A I # | K # M * /.5.a ~ a D 5._.5 V - - 4 $.*.2.o ).= !./ ) / !.",
"> I ` S 1 T N d 5 :.).e n > . [.w T j : z _ ( = 2.P a.b.r q R '.<.d * G 4 W ) :.= e H B 8.o / 8.",
"; A I x =.w > 4.B 4 u * (.m ; , ( U =. . .M 4.c b Q { -.r D ^.W B e 3 G = 5 c #.4.N n 3 = C :.8.",
"' n 3.[.[.3.3.( , k H H H * - - H v . U [.(.4 /.R Q c.] q O $.V (., ; H ' #.= e N 2 . m ' 8.:.5 ",
"<.e (.v N . M % @.U > ; H ' #.4 B * (.; m G 5 '.b P d.Q R '.#.m 3.2 ( ; H G G l > U . m ' 5 W :.",
"C ' e k n [.+.1 ` + f @.f 0.( (.V #.d 3 e ' G k m - C 5.^.d x j S S j ..f > 3 4.& [.> k B W t /.",
"5 d H v . @.j : < } e.f.g.h.i.j.g.h #.B n < k.g.i.l.j.m.5 ' e.n.o.p.q.r.s.t.u.A (.& n H #.t ^.b ",
"8.G l & U T $ y v.w.x.y.z.2 (.< o.A.u 9.z B.C.D.4.[.E.F.2 t @.G.F.A.g.0.i H.I.J.f m N H ).2.! ,.",
"5 B 4.> w =.j [ K.F.A.L.> - $.8.m.M.t B N.I.A.& ).u [.O.3.O H K.F.A.P.9.[.k.Q.I.R., ( (.= 2.1.a ",
":.#.H ( M T + L.S.A.T.x 3.u ^.Q 9.U.^ 4.V.A.A.[ 3 u ).z e b ' K.F.A.W.t , L.M.A.J.> f U (.C b 8 ",
"c #.4.3.@.T + f.Q.A.R.( 4.6 |.X.9 &.] * w.A.A.y.U.A B 9.2.6 G N.F.A.h }.> u.y.A.q.M $ _ A e W _.",
").V ; w =.+.1 t.I.A.| G 9.p { Y.;.-.P 9.[ C.A.A.C.B.R.k #.= H Z.F.A.< }.+ t.F.A.`...| < S 0.3 ).",
"4.; 0...$ ` S T.A.A.S c t C N 0.T  .=.:.l K t.S.A.A.A.O...G v  +F.A..++. +S.Q.w.L : ++@+m.` U m ",
"n [.I @ L # # t.I.A.` *.O / z H.#+#+v.6 8.G 0.L N.y.A.A.$+G m `.C.A.t.[ D.k.U.j ` | U.@+} S M n ",
". % j : J S 1 r.C.A.h ! q 9 9.O.A.A.(.,.| 2.) <.[.%+M.A.Q.#.* r.C.A.&+).M @.x 1 # i W.*+K 1 U ; ",
"2 ..g y : _ w J =+A.g.R 9 X._.A.A.A.B t -+(.a ^.C x B.A.M.2.). +F.A.K ) U T I  .1 @ i i S A m - ",
"[._ : y S T v & e.A.y.f 8 a.:.A.A.A.V '.p.f.6.! W L #+A.i.X 8.G.I.A.| 7 > w A f =.+ S $ +.n ' 9.",
"3.j J J 1 2 e = & h.Q.;+` > # >+A.A.G ! `.Q.l.T j f.y.,+5 |.L V.F.A.`.e l n [.U M T  .x 0.H <.W ",
". _ g @ =., = :./ d 3.z .+ +r.U.T :.Y.,.8.; _ i.`.u.S 8 X.%.P.D.k.l.r.r.% * ( [.U @.x T . - 8.W ",
"N +._ I 3.* c 6 t / 4 V 9.$.%.5.s P ^.7 R ^ ! F 7 7 ! |.8 ^./.5.,.P F *.o * > U M f +.@.N V :.o ",
"(.w A . 4.9.o '.6.o 8.u ' B 4 5 C W $._.R |.D ! }.}.7.5.s ^ O 5.P P 5._.#.l > M T +.+.U k <.) '.",
"* N , e ).$.t '.%.) C #.H (.(.H d = 8.) 7.! ^ b 2.7 R 1.,.! 7.b R ^ F 2.4 (.U +...x @.n V o _.%.",
"- ; l B 5 $./ o /././ 4 (.. U [.n 4.V 5 /.}.*./.6 2.F ,.D ! 7 *.*.7 *.) V N %  ._ x U l <.t 6./.",
"H , k ' ).<.4 !.W 6 W #.N % ..+ T [.v - <.C c 9.).$.7 s 1.R 6.6 / W C ).k w + $ j I . e <./ W !.",
", 2 . v k k m H B <.).G 0.j z < J ` I 0., k m , v G c *.&.*.:.).= ' * l 2 + # J # + U m G ' e k ",
"N 0.U 3.( 3.U . (.' B * 0.$ h &+&+z.z $ x =.+.I =.. G / %.6.c 4 V * l n A j z h i # I 0.& n > 3.",
"v 3.3.2 U @.=.% . 4.d - . _ | @+E.L.&+[ i y < < : I , ).6 t :.<.= G 4.n A j y z.m.K L 1 +.@.M M ",
"4.v , & 2 f ..x % N 3 G , =.: &+L.'+P.@+U.P.L.L.} S U G 8./ / C !.u * ; U + J W.U.U.} h J j +.@.",
"3 3 3 k N 0.I ..=.[.m e (.M j h *+U.*+&+@+%+i.e.*+g A H u 8.:.W C 4 d k 3.I L m.@+E.P.++[ L + @.",
"H G V d H & @.I I @.> k (.[.+.# z i z < W.P.e.%+m.@ M ; e B !.C 5 4 G (.3.+.S [ U.P.P.@+*+i 1 % ",
"v * #.9.B l [.T x +.w N ; ( M I + + ..` y } @+U.i _ A > , l ' #.= G k N M x @ i [ W.W.W.m.i ` T ",
". H ).c <.G > @.+.=.0.n l ; & [.w w A ..g K } W.J ..A [.( N l e 3 (.n 3.f ..$ L J J : J J S + A ",
"U 3 !.6 W u v 0.% w > l d G * l ; N [.+.@ | [ K S =.U . ( & m (.; N ( 2 @.I _ $ @ $ _ _  .+.M > ",
"> u ) 2.) #.; 3.U & k B 8.C C !.= * n A _ L J g I [.m 3 H H 3 k , & & & [.@.x ` @ ` ..T A 3.v 3 ",
"H / ^.&.t #.v 3.3.v - 9./ /._.'./ 9.4.3.=._  .+.[.H 4 C c 8.4 - (.; (.l m [.+.@ : : 1 =.U , 3 V ",
"#.*.5.O ) V N 3.3.v - 9./ %.^.&._./ d , U A U & e 8.%.b 7.*.o 4 e 4.3 G e > +.L h [ L ..w , e V "};
