/* XPM */
static char * gsp64_xpm[] = {
"64 64 214 2",
"  	c None",
". 	c #707070",
"+ 	c #5D5D5D",
"@ 	c #555555",
"# 	c #515151",
"$ 	c #4F4F4F",
"% 	c #5A5A5A",
"& 	c #5F5F5F",
"* 	c #686868",
"= 	c #757575",
"- 	c #7F7F7F",
"; 	c #848484",
"> 	c #858585",
", 	c #828282",
"' 	c #7A7A7A",
") 	c #737373",
"! 	c #6C6C6C",
"~ 	c #6B6B6B",
"{ 	c #898989",
"] 	c #9C9C9C",
"^ 	c #ACACAC",
"/ 	c #B6B6B6",
"( 	c #BDBDBD",
"_ 	c #C0C0C0",
": 	c #B8B8B8",
"< 	c #AAAAAA",
"[ 	c #969696",
"} 	c #838383",
"| 	c #6A6A6A",
"1 	c #606060",
"2 	c #585858",
"3 	c #505050",
"4 	c #4A4A4A",
"5 	c #454545",
"6 	c #424242",
"7 	c #3E3E3E",
"8 	c #3C3C3C",
"9 	c #3A3A3A",
"0 	c #3D3D3D",
"a 	c #6E6E6E",
"b 	c #7D7D7D",
"c 	c #868686",
"d 	c #8E8E8E",
"e 	c #949494",
"f 	c #9B9B9B",
"g 	c #A3A3A3",
"h 	c #AEAEAE",
"i 	c #BBBBBB",
"j 	c #ABABAB",
"k 	c #8D8D8D",
"l 	c #808080",
"m 	c #787878",
"n 	c #646464",
"o 	c #525252",
"p 	c #464646",
"q 	c #444444",
"r 	c #4E4E4E",
"s 	c #666666",
"t 	c #767676",
"u 	c #797979",
"v 	c #777777",
"w 	c #727272",
"x 	c #676767",
"y 	c #6D6D6D",
"z 	c #979797",
"A 	c #A6A6A6",
"B 	c #B0B0B0",
"C 	c #ADADAD",
"D 	c #8A8A8A",
"E 	c #7B7B7B",
"F 	c #717171",
"G 	c #5E5E5E",
"H 	c #565656",
"I 	c #4B4B4B",
"J 	c #484848",
"K 	c #414141",
"L 	c #404040",
"M 	c #474747",
"N 	c #5B5B5B",
"O 	c #B9B9B9",
"P 	c #BABABA",
"Q 	c #9E9E9E",
"R 	c #434343",
"S 	c #696969",
"T 	c #999999",
"U 	c #A5A5A5",
"V 	c #B4B4B4",
"W 	c #B7B7B7",
"X 	c #8C8C8C",
"Y 	c #4C4C4C",
"Z 	c #494949",
"` 	c #535353",
" .	c #656565",
"..	c #C3C3C3",
"+.	c #C6C6C6",
"@.	c #B1B1B1",
"#.	c #A0A0A0",
"$.	c #4D4D4D",
"%.	c #545454",
"&.	c #616161",
"*.	c #9A9A9A",
"=.	c #A8A8A8",
"-.	c #7C7C7C",
";.	c #5C5C5C",
">.	c #636363",
",.	c #919191",
"'.	c #CACACA",
").	c #CCCCCC",
"!.	c #B5B5B5",
"~.	c #A4A4A4",
"{.	c #929292",
"].	c #9F9F9F",
"^.	c #6F6F6F",
"/.	c #747474",
"(.	c #878787",
"_.	c #C7C7C7",
":.	c #CFCFCF",
"<.	c #CDCDCD",
"[.	c #A7A7A7",
"}.	c #888888",
"|.	c #575757",
"1.	c #595959",
"2.	c #8B8B8B",
"3.	c #939393",
"4.	c #989898",
"5.	c #959595",
"6.	c #818181",
"7.	c #7E7E7E",
"8.	c #C9C9C9",
"9.	c #CECECE",
"0.	c #CBCBCB",
"a.	c #C2C2C2",
"b.	c #9D9D9D",
"c.	c #8F8F8F",
"d.	c #C4C4C4",
"e.	c #909090",
"f.	c #BEBEBE",
"g.	c #BFBFBF",
"h.	c #A2A2A2",
"i.	c #B2B2B2",
"j.	c #AFAFAF",
"k.	c #626262",
"l.	c #A9A9A9",
"m.	c #A1A1A1",
"n.	c #B3B3B3",
"o.	c #BCBCBC",
"p.	c #C1C1C1",
"q.	c #303030",
"r.	c #292929",
"s.	c #202020",
"t.	c #252525",
"u.	c #212121",
"v.	c #1A1A1A",
"w.	c #242424",
"x.	c #393939",
"y.	c #2F2F2F",
"z.	c #232323",
"A.	c #1B1B1B",
"B.	c #2C2C2C",
"C.	c #151515",
"D.	c #131313",
"E.	c #141414",
"F.	c #171717",
"G.	c #1D1D1D",
"H.	c #1E1E1E",
"I.	c #191919",
"J.	c #181818",
"K.	c #2B2B2B",
"L.	c #050505",
"M.	c #000000",
"N.	c #0C0C0C",
"O.	c #363636",
"P.	c #282828",
"Q.	c #262626",
"R.	c #0A0A0A",
"S.	c #3B3B3B",
"T.	c #323232",
"U.	c #070707",
"V.	c #161616",
"W.	c #0D0D0D",
"X.	c #0B0B0B",
"Y.	c #030303",
"Z.	c #080808",
"`.	c #0F0F0F",
" +	c #333333",
".+	c #1F1F1F",
"++	c #383838",
"@+	c #121212",
"#+	c #373737",
"$+	c #060606",
"%+	c #2E2E2E",
"&+	c #3F3F3F",
"*+	c #C5C5C5",
"=+	c #D1D1D1",
"-+	c #D3D3D3",
";+	c #2A2A2A",
">+	c #090909",
",+	c #353535",
"'+	c #2D2D2D",
")+	c #111111",
"!+	c #222222",
"~+	c #101010",
"{+	c #FFFFFF",
"]+	c #F9F9F9",
"^+	c #FAFAFA",
"/+	c #D4D4D4",
"(+	c #F6F6F6",
"_+	c #020202",
":+	c #343434",
"<+	c #EEEEEE",
"[+	c #DEDEDE",
"}+	c #E3E3E3",
"|+	c #C8C8C8",
"1+	c #313131",
". + @ # $ # @ % & * = - ; > , ' ) ! ~ . ' { ] ^ / ( _ : < [ } ) | 1 2 3 4 5 6 7 8 9 0 5 3 & a b c { d e f g h / i : j ] k l m m ",
"n o 4 p q 5 4 r # % s . t u v w ! x x y t c z A B : ( : C f D E F s G H 3 I J 5 K L 6 M $ N s w m b ; k z g B O _ P h Q k l t v ",
"& r p 6 K R M I $ @ & * a F F y S x | . E { T U C V O W ^ ] X b w * G H 3 Y Z J p 5 M Y ` N  .y ) u } d f < W ..+._ @.#.d l v t ",
"+ I 5 K K R J $.$ %.N &.s S ~ | S ~ . m , d *.g =.C @.B A T D -.F s N ` $ I I I I $.3 H ;.>.S a ) m } ,.#.@._ '.)...!.~.{.} m v ",
";.I p 6 R M Y # %.H 2 ;.& n x | ! F m , X e f Q #.U A U ].e c ' y &.2 3 Y 4 Y $ # @ ;.>.S ^.w /.t E (.[ U : _.:.<...W [.z }.-.-.",
"& $.J p M Y # H 2 |.2 1.;.1 s ! F m } 2.3.[ 4.[ 5.4.f T 5.2.6.t S + %.r I Y $ %.1.&.~ ) E 7.b -.E l D T < i 8.9.0.a.W ^ b.c.; , ",
"&.3 I Z 4 3 @ % N 1.|.2 N &.S . u 6.X 3.z [ ,.X }.D k X { ; E .  .% # Y Y r @ + n a E > 2.k D ; 6.c d ] ^ P +.8.d.( : B ~.T k 2.",
"n # Y 4 $.# H N N 1.|.2 + n a m l 2.e z 5.c.c b u E - l l b t ^.n 1.o $ 3 H & S ) 7.k 4.] *.e X (.{ e.f =.!.f.g.: !.!.@.< h.[ e ",
"n ` Y 4 I $ %.1.1.|.|.N &.~ v , { {.z [ c.} m a ~ a w v m u t ^. .;.|.|.% >.^.E c ,.].A =.h.z d (.(.k 5.#.< i.@.C ^ j.B C U *.T ",
"* @ r 4 4 Y # @ H |.N &.S = 6.2.,.e [ e.c m y >.1 k.x y ) t t ) ~ n k.k.S ) l X 5.].l.j l.#.e { } > { ,.T h.[.A ~.U l.^ < U f 4.",
". N o $.I Y 3 @ 1.+ >.! = l D ,.e e ,.{ b F s + 2 1.+ n ~ w t m ) ^.a F m 6.X z b.~.l.l.m.z k ; l } { e.z ].m.].] Q g [.[.g 4.5.",
"m k.2 # $.$.# |.G s ^.u } X ,.e ,.k { , m y k.2 ` o %.N n ! = E -.' E l c X e ] #.U U #.4.c.> - b } { ,.T b.].*.[ T ].g h.Q 5.,.",
"7.x ;.%.# # @ N n . -.(.c.e e ,.X c 6.' ) | 1 |.# $.$ o N x ) 7.} c D k {.[ *.Q m.m.Q z d c l -.b > k [ ] Q b.4.3.e *.] b.T c.2.",
"l | & H ` ` 2 &.! ' { 5.*.*.5.X ; b u = ^.S &.2 # 4 Z Y @ &.. - }.c.[ *.b.Q ].#.#.Q z c.(.l -.' b (.{.f #.#.f e e.{.5.z 4.3.2.(.",
"- S G |.%.@ N  .w } e b.#.f e.; ' = w a ~ * &.% 3 J q p $.N ! 7.X z #.U [.U g h.#.] 3.D , -.' E 7.D z #.g h.f {.k k {.e e e.(.} ",
"u n % %.o %.N  .) ; 5.].#.z D -.F y ~ * x  .&.% 3 M 6 6 4 |.S 7.k *.A C j.C =.U g b.,.c l E u ' - 2.4.m.h.Q [ k { 2.c.{.,.c.c , ",
". G %.r Y 3 |.&.a 7.c.z T e.} t y S s n >.&.G |.$ p L K Z H S b c.Q j i.!.n.j.j [.].{.(.- ' u ' l D [ b.b.z d ; } c 2.,.{.,.D > ",
"! N o r I $.%.+ S v c e.e.D l = y * x  .n k.G 2 # J q q Y % a } 3.h.j.O o.O !.j.l.Q e.> 7.' ' E 6.{ {.[ 3.2.} E u - c k {.,.X (.",
". & |.# # ` 2 1 * /.- (.D c - v . y ~ | S s k.+ |.$ Y Y @ n v D T A !.( p.( / h A T X 6.E m u E 6.{ c.e.D 6.v F F v - (.k c.2.(.",
"t s G N 1.N & n * ^.m 7.6.l b m /.w w w . y S n G 2 H 2 1 a l e.Q j : _ p.o.V < ].,.; E v t v -.- c D }., m a * | F ' , { k D (.",
"- a * n >.n s s x S a w t m m v t v m u u t w ! x >.&.n ! ' }.z h.^ : g.( W C m.5.(.' w . . /.u b 6.> 6.E w * n s a t l (.k D }.",
"c v w a y ~ | *  .k.n  .S y F /.t ' 7.l l b ' /.^.! ! a = 6.d T #.< V O W j.g z D -.. S * S ^./.m -.- b v a s >.s ! /.- (.X X { ",
"k 7.u = ) ^.! x 1 N 2 1.+ k.S ^.) ' 6.> (.; 6.' v /.) = -.> c.[ f g ^ @.j.A *.k l ) x k.&.>.S a w v E u = a x n s y t l }.d e.d ",
"e.l -.m /.. | n N ` $ $ o 2 N 1.@ |.+ &.* t } > - ' v u b E w  .k. .. } m.~.e ~ Y 4 M p M Z $.3 ` G y ' m ^.* s S . m , X 3.[ 5.",
"k 7.' t . y s G @ $.J M 5 7 9 q.r.s.t.u.v.w.x.n }., u ) 2 L y.y.z.z.A.w.7 d b.y B.C.D.E.E.F.G.H.I.J.K.q . v a S ~ F E ; e.4.Q Q ",
"2.b m ) a * k.% o I 5 9 q.H.L.M.N.O.% % P.M.M.M.! e.' $.Q.R.M.M.@ G S.M.M.D.n.' % T.U.M.M.M.K.o x.R.M.M.V.! m ~ ~ w -.(.e #.=.=.",
"2.- u ) ! s & % o I L B.W.M.M.X.n -.}.X -.7 M.M.; ~.s P.Y.M.M.y z > -.$ M.M.<.k l 9 W.M.M.M.>.}.S L Z.M.M.`.6.. | . E }.z ~.j.B ",
"X } -.) ! n & 1.@ $. +E.M.M.M.N * a 6.5.f ) .+M.k h I X.M.M.M.*.6.E > &.J.M.9.3.d ++Z.M.M.M.a c.) J D.M.M.M.r t s ! = } e ~.@.n.",
"k (.b /.~ n G N 1.I t.M.M.M.u.s &.F { #.j.=.$.@+z n.#+$+M.M.M.^.b E > 6.J M.9.e 3.9 U.M.M.M.u T v o J.M.M.M.q.- & >.! u D ] j C ",
"k }.7.) ~ >.G ;.+ q E.M.M.M.Z S S b z ^ o.a.(.- d.h S.U.M.M.M.W.&.v (.2.= #.: e.{.8 U.M.M.M., #.t ` C.M.M.M.%+m @ |.& ~ -.d Q m.",
"{ (.b F * 1 ;.;.1 O.N.M.M.M.) . t 2.~.P 8.9.f.i f.#.N `.M.M.M.M.M.K.1.-.2.}.> }.k 7 U.M.M.M.{ ~.) &+@+M.M.M.#+S I I 3 N ~ -.k ,.",
"} , v ! k.N 2 % & %+M.M.M.M.e.m } *.i.*+=+-+0.f.^ 4.m 8 $+M.M.M.M.M.M.s. .l l - c L Z.M.M.M.{ #.& t.$+M.M.M.H @ 6 L R $.% ~ E 6.",
"m v a >.% %.3 ` N ;+M.M.M.M.*.l d 4.c b 7.v a x & d z + K E.M.M.M.M.M.M.M.$.-.E 7.K >+M.M.M.w ~ ,+E.M.M.M.y.& 5 S.++9 6 $ G a /.",
"^.a n 1.o $.I r H '+M.M.M.M.~.d T b. ..+v.F.F.I.P.0 !.- S ;.9 I.M.M.M.M.M.M.N ; 7.R R.M.M.M.D.r.)+M.M.V.R G $ L x.O.++7 Z 1.x a ",
"~ * G %.$.4 Z r H O.L.M.M.M.].h.A j { o E.M.M.M.G.=.< t 5.- = /.%.V.M.M.M.M.!+f } 5 R.M.M.M.@ k.p 5 x &.;.# M 6 S.++9 &+I % * ^.",
"S k.|.$ 4 J 4 3 1.M ~+M.M.M.7.: j.o.p.6.@+M.M.M.1.{+N s.T g {.D t k..+M.M.M.M.B k 5 R.M.M.M.6.5.~ s G o # $ I p L 8 7 p # & ! w ",
"* + o I M M Y %.1 & w.M.M.M.|.+.i.g.).}.M.M.M.M.H ]+B.D.. g.#.4.d E T.$+M.M.M.d.z R Z.M.M.M.} 5. .+ % |.%.` # Y 5 R p r % x = u ",
"S % $ Z p J 3 N * F $ $+M.M.E.( i.O d.; M.M.M.M.H ^+'+$+C./ i b.3.d r.Z.M.M.y./+h.L $+M.M.M.(.] | &.G ;.% 1.|.o I Z $ 2 n w - , ",
"~ 2 $.J p I @ >.. E ^.0 M.M.M.,+*.C P ) M.M.M.M.%.(+#+_+M.7 =.< 5.1 V.Y.M.M.3./+h.:+L.M.M.M.D l.^.s n k.1 & + 2 # # H &.a -.}.D ",
"! |.$.M J r N | v } }.. 4 N.M.M.'+` $  +E.M.M.M.%.<+! A.M.M.z.Y p %+~+M.M.G [+e K J.Z.M.M.M.x.E t v S s  .n &.;.H @ + x /., X d ",
"y 2 r 4 I ` 1 . b (.c.X u ^.3 %+D.M.M.M.M.x.7 X }+9.3.u S Z B.M.M.M.`.O.3.=+|+(.w.M.M.M.M.M.M.M. +; | * s s >.G 2 2 & | t } X k ",
"^.N o 3 # % * v ; X ,.{.e.} m b > ,.f h./ o._ _.C T m.g b.#.].#.Q ] U / f.@.=.d - ] < ^ j A Q ].[.d y S s n &.+ 1.% &.y m > d d ",
") 1 1.2 ;.s ) , X {.5.5.,.2.; l 6.> { d {.3.{.,.,.[ #.=.j.j.C U f z T ] m.~.=.U h.g < h C [.].,.6.v . S n 1 G N 1.;. .F 7.D ,.{.",
"m s k.k.* w 7.D e.5.z [ {.2.; - E E 7.6.> }.D X X {.b.A C h ^ U ] f b.m.U l.l.U #.m.[.^ ^ l.g [ c u . x &.;.% 1.1.& ! m > e.[ [ ",
"-.! S y /.b (.e.3.e z 4.3.d c l m = ) = m b 6.> }.c.T g l.< [.#.*.f ].U l.j j U #.].g [.=.[.h.z }.u ! >.;.2 2 2 ;. .w l X [ T z ",
"7.^.. ) E ; d {.,.,.e z 5.,.D l t y | S ~ ^.t E l { 3.f #.m.].4.5.z ].A ^ h C A Q ] Q ].m.m.] e > t * G 2 @ @ 2 G ~ m (.{.4.T [ ",
"b . w v 7.(.X k D D e.3.e {.X 6.) x 1 G G >.| F v - { e.5.[ {.k 2.,.f U j h ^ U ] z [ [ z [ 3.2.7.a k.1.` o %.% >.^.7.2.{.5.3.e.",
"m ! a ) ' l ; } l , }.k e.c.D 7.^.1 |.` o @ + n | F -.> }.(.> l l c {.] A < l.m.[ e.k 2.D { c l /.s % ` $ $ ` N  .w 7.}.k X }.} ",
"w  .* | . = v t ) t -.} }.}.} u * 2 r J p Z $ H N >.! /.m m /.F F u ; e.f #.#.T c.(.} 6.- b u /.| ;.` $.4 I # 1.n a ' l 6.7.m = ",
"a k.>. .* ~ ! ~ x | . u - , - t s @ 4 6 7 7 6 J $.` N k. .n >.&.1 * t > ,.4.*.5.X } l b ' v ) y >.|.r J 5 p I %.;. .a ) /.. ! | ",
"^.n n n  .s  .k.& 1 x . m b 7.v S 2 4 L x.O.#+S.&+p Y # o # # $ # % S m (.{.z e X c , b ' t F | k.H Y 5 K K 5 4 # 1.1  .x s  .>.",
") S x * s n k.+ 1.1.1 * w ' b ' y ;.$.6 x. +T.:+++8 L R R 6 K K q r & . - k {.3.d { > l b m w ! >.2 $.5 L 0 7 K M $.` 2 ;.& 1 &.",
"t a a ! | x &.N |.H % &.~ = -.E F &.o 5 S.,+T.1+,+++x.9 ++#+O.#+S.M |.S u (.k e.d X }.> l E = a s N $ p &+9 x.9 0 6 M $.` 2 + 1 ",
"m /././.. ~ s G 2 H 2 + s ^.m ' = s 2 I K 9 O.,+++x.++O. +1+y.1+++q %. .= l (.X d k X { ; 7.v F * G o M &+x.O.,+#+S.&+5 I ` N 1 ",
"v m ' ' m ) ! >.;.2 |.N &.S ) m t | + o J 6 7 0 &+L 8 ++:+q.y.1+x.5 %.n F ' l c D k X 2.> l u F ~ 1 %.4 6 9 ,+ +:+O.x.&+p 3 % &.",
"= m 7.l - -.) | k.;.2 2 ;.>.y ) /.~ k.1.# I Z J I Z 5 0 ++ +1+:+0 Z |.n y /.u 7.> D D }.; 7.v . S 1 @ Y R 0 #+O.O.O.x.8 R $.2 1 ",
"^.t 7.} > 6.' F x G 1.|.1.G s a F !  .G 2 %.` %.H ` Y q 0 ++O.x.6 $ 1.>.| a w v 7.} > } - m w ~ n ;.%.$.p K 0 S.8 8 8 7 R Y H + ",
"S F -.> }.c - t ~ &.% |.2 + s y F a |  .&.G + + G 1.# J 6 8 9 0 5 # % k.s S ~ ^.t E -.' t F ! x & 1.%.$.4 p 5 5 5 q R q J r |.& ",
"k.a -.(.k X > E ^.n + N ;.&.S F v t w ^.! * s s n + ` I q &+0 L J ` ;.k. .x * ~ . /./.) . y * n G 1.%.# $.Y Y $.$ $ $.r # H G  .",
"1 . - 2.3.{.D 7.w x 1 & k.x ^.m 7.7.b E m /.F y S 1 H $.p 6 K q $.|.1 s S | | ! F F F a ! S x  .&.;.|.%.# 3 3 o @ H H 2 N & * y ",
"n = c 3.4.[ k - ) S n >.* a t l c { { }.> 6.-.= a n % 3 4 M M I %.G * . ) ) ) ) = ) . y ~ | | | s 1 N H o 3 3 o |.% + 1 n | F t ",
"~ l e.] Q T k - w S s x ! ) b c X c.3.3.,.X c 7.= S G H 3 r 3 @ + * /.-.6., l l - ' ) ^.y a . . a x 1 2 # r Y $ %.% & s ~ w u 7.",
"t X f g h.*.X b ^.* s * a t l { d e T b.f z e.}.E ^.n + 1.1.;.k.| t ; d e 5.{.c.2.} u ) w ) = m v a >.2 $ Z 5 p r @ G s y = -.l ",
"- 5.h.=.~.T { u y x s x y /.7.c X 3.*.].#.] [ k 6./.~ n k.n S . m ; {.Q g U #.] 5.D 7.v = t ' b E w n |.Y q &+&+M # % n ! /.E 7."};
