/* XPM */
static char *ladybug48[] = {
/* columns rows colors chars-per-pixel */
"48 48 112 2",
"   c #000000",
".  c #000408",
"X  c #0B0101",
"o  c #090B0E",
"O  c #0F1013",
"+  c #130202",
"@  c #1B0202",
"#  c #1C0508",
"$  c #190808",
"%  c #121314",
"&  c #16181B",
"*  c #191B1D",
"=  c #230303",
"-  c #24060A",
";  c #200808",
":  c #2B0404",
">  c #29070C",
",  c #2D0A0B",
"<  c #2E1414",
"1  c #340404",
"2  c #35070A",
"3  c #37090D",
"4  c #3B0505",
"5  c #3C090B",
"6  c #232323",
"7  c #25272A",
"8  c #26292B",
"9  c #2C2C2C",
"0  c #3F2323",
"q  c #353535",
"w  c #3B3B3B",
"e  c #440606",
"r  c #460B0D",
"t  c #4C0707",
"y  c #4B0A0A",
"u  c #500707",
"i  c #530808",
"p  c #5C0909",
"a  c #531212",
"s  c #5D1212",
"d  c #502C2C",
"f  c #640A0A",
"g  c #6C0B0B",
"h  c #6E1010",
"j  c #730C0C",
"k  c #7A0C0C",
"l  c #741212",
"z  c #721C1C",
"x  c #7A1515",
"c  c #7B1919",
"v  c #643434",
"b  c #722626",
"n  c #7B2222",
"m  c #563F40",
"M  c #444444",
"N  c #484545",
"B  c #4C4C4C",
"V  c #4E4F50",
"C  c #554646",
"Z  c #5C4343",
"A  c #535353",
"S  c #535558",
"D  c #57585A",
"F  c #5B5B5B",
"G  c #794141",
"H  c #7A5656",
"J  c #636363",
"K  c #6B6B6B",
"L  c #747474",
"P  c #7B7B7B",
"I  c #840D0D",
"U  c #890E0E",
"Y  c #811313",
"T  c #821C1C",
"R  c #8C1212",
"E  c #8B1D1D",
"W  c #931B1B",
"Q  c #862222",
"!  c #8C2626",
"~  c #863131",
"^  c #8E3535",
"/  c #952727",
"(  c #952A2A",
")  c #9D2626",
"_  c #9C2C2C",
"`  c #9A3232",
"'  c #A42C2C",
"]  c #A13030",
"[  c #A63939",
"{  c #AB3B3B",
"}  c #B33D3D",
"|  c #8B5151",
" . c #9B4848",
".. c #AC4141",
"X. c #B34545",
"o. c #BA4545",
"O. c #BC4C4C",
"+. c #BE5A5A",
"@. c #C45252",
"#. c #C05A5A",
"$. c #CD5A5A",
"%. c #C66464",
"&. c #D16161",
"*. c #848484",
"=. c #8B8B8B",
"-. c #979797",
";. c #9D9D9D",
":. c #A6A6A6",
">. c #ACACAC",
",. c #B3B3B3",
"<. c #C2C2C2",
"1. c None",
/* pixels */
"1.1.1.1.1.1.1.1.1.1.1.1.1.1.1.1.1.1.1.1.1.1.1.1.1.1.1.1.1.1.1.1.1.1.1.1.1.1.1.1.1.1.1.1.1.1.1.1.",
"1.1.1.1.1.1.1.1.1.1.1.1.1.1.1.1.1.1.1.1.1.1.1.1.1.1.1.1.1.1.1.1.1.1.1.1.1.1.1.1.1.1.1.1.1.1.1.1.",
"1.1.1.1.1.1.1.1.1.1.1.1.1.1.1.1.1.1.1.1.1.1.1.1.1.1.1.1.1.1.1.1.1.1.1.1.1.1.1.1.1.1.1.1.1.1.1.1.",
"1.1.1.1.1.1.1.1.1.1.1.1.1.1.1.1.1.1.1.1.1.1.1.1.1.1.1.1.1.1.1.1.1.1.1.1.1.1.1.1.1.1.1.1.1.1.1.1.",
"1.1.1.1.1.1.1.1.1.1.1.1.1.1.1.1.1.1.1.1.1.1.1.1.1.1.1.1.1.1.1.1.1.1.1.1.1.1.1.1.1.1.1.1.1.1.1.1.",
"1.1.1.1.1.1.1.1.1.1.1.1.1.1.1.1.1.1.1.1.1.1.1.1.1.1.1.1.1.1.1.1.1.1.1.1.1.1.1.1.1.1.1.1.1.1.1.1.",
"1.1.1.1.1.1.1.1.1.1.1.1.1.1.1.1.1.1.1.1.1.1.1.1.1.1.1.1.1.1.1.1.1.1.1.1.1.1.1.1.1.1.1.1.1.1.1.1.",
"1.1.1.1.1.1.1.1.1.1.1.1.1.1.1.1.1.1.1.1.1.1.1.1.1.1.1.1.1.1.1.1.1.1.1.1.1.1.1.1.1.1.1.1.1.1.1.1.",
"1.1.1.1.1.1.1.1.1.1.1.1.1.1.1.1.1.1.1.1.1.1.1.1.1.1.1.1.1.1.1.1.1.1.1.1.1.1.1.1.1.1.1.1.1.1.1.1.",
"1.1.1.1.1.1.1.1.1.1.1.1.1.1.1.1.1.1.1.1.1.  X + # - - @ + .   1.1.1.1.1.1.1.1.1.1.1.1.1.1.1.1.1.",
"1.1.1.1.1.1.1.1.1.1.1.1.1.1.1.1.1.1.1.X - r t t t e 4 : : = = + .   1.1.1.1.1.1.1.1.1.1.1.1.1.1.",
"1.1.1.1.1.1.1.1.1.1.1.1.1.1.1.1.1.. 3 p 1 p f e 1 1 4 4 1 4 1 , @ + .   1.1.1.1.1.1.1.1.1.1.1.1.",
"1.1.1.1.1.1.1.1.1.1.1.1.1.1.1.1.# p t g g f u 4 t t i t 4 4 e 1 : = @ X . 1.1.1.1.1.1.1.1.1.1.1.",
"1.1.1.1.1.1.1.1.1.1.1.1.1.1.  > g j g j f t u f u f i t i e e e 1 : = +     1.1.1.1.1.1.1.1.1.1.",
"1.1.1.1.1.1.1.1.1.1.1.1.1.  5 j k k j g t f g u 4 f p p i + : 4 4 1 : @ +     1.1.1.1.1.1.1.1.1.",
"1.1.1.1.1.1.1.1.1.1.1.1.1.> g k k k g t j j j g g f p p i i t 4 1 4 : : @ X .   1.1.1.1.1.1.1.1.",
"1.1.1.1.1.1.1.1.1.1.1.1.; # j 4 p l u k k k j g g i @ 4 i i t 4 : 4 1 = @ +   .   1.1.1.1.1.1.1.",
"1.1.1.1.1.1.1.1.1.1.1.. y 4 I g x i j k k k j j g g p p p i t t e 4 1 : + + X   . 1.1.1.1.1.1.1.",
"1.1.1.1.1.1.1.1.1.1.1.5 g j I W f g + y Y Y x j g g f f p i t t e 4 1 : + + +       1.1.1.1.1.1.",
"1.1.1.1.1.1.1.1.1.1.  g I U R z k Y s c E E x x j g f p p i i t e e 1 1 : @ + X   . 1.1.1.1.1.1.",
"1.1.1.1.1.1.1.1.1.1.> I U U ! j R W ) ] ] ( Q Y l g f f i i i t e e 4 : @ @ @ X   . 1.1.1.1.1.1.",
"1.1.1.1.1.1.1.1.1.1.i I U W h R W ' } o.X.[ ( T l g f 4 + @ t t e e = X   X + X     . 1.1.1.1.1.",
"1.1.1.1.1.1.1.1.1.O C C b c I R ) } @.#.| G ~ Q x g f i 1 4 i t t 4 + X X X @ X     . 1.1.1.1.1.",
"1.1.1.1.1.1.1.1.7 D F D A v U W ' o.$.%.H Z v Q c l f f p i i t e e = + + = @ X X     1.1.1.1.1.",
"1.1.1.1.1.1.1.7 J K J F D A n W ' o.$.&.+. .^ Q x h f f p i i y t e 1 1 : = @ +     . 1.1.1.1.1.",
"1.1.1.1.1.1.& K K K J J F A C E ) { O.@.O...` Q l h f p p i i t e e 4 1 : = @ + X   . 1.1.1.1.1.",
"1.1.1.1.1.1.S L L K K K F D V v W ' [ { { ` ! T l h 2 = 1 i i t e 4 4 1 : = + X         1.1.1.1.",
"1.1.1.1.1.* K L P P *.P K F V N T E / ` ( ! T x h f e 1 4 t t t e e 1 1 : = @ +     . 1.1.1.1.1.",
"1.1.1.1.1.M L L *.;.>.-.P F A N d r a z T T x l g f f p i i t t e 4 1 : = = + +     . 1.1.1.1.1.",
"1.1.1.1.1.D L P =.,.<.:.P J A N w $ ; , a l h g g f p p i i t e e 1 + X X @ + X     . 1.1.1.1.1.",
"1.1.1.1.1.J L L *.:.>.-.P F V N q < ; # r g g g f f p p i i t e 1 X   X X + +         1.1.1.1.1.",
"1.1.1.1.1.J L L P *.*.P J D B M q d p t f g g f f p p i i t t e 1 + X X + @ + X   .   1.1.1.1.1.",
"1.1.1.1.1.V K K K K K J F A B w q 9 j j g g f f f p i i i t e 4 4 1 : = @ @ X     . 1.1.1.1.1.1.",
"1.1.1.1.1.9 K K K J F F A V B w q 7 f g g g f f p p i u t e e 4 1 1 = = @ X     . 1.1.1.1.1.1.1.",
"1.1.1.1.1.. A J J F F A B B M q 9 6 i f f f f p i t t t t e 4 4 1 : = @ X     .   1.1.1.1.1.1.1.",
"1.1.1.1.1.1.O A D A A V B M w q 9 * r f f p p 4 @ + + = 4 e 4 1 : : @ + X   .   1.1.1.1.1.1.1.1.",
"1.1.1.1.1.1.1.. 7 M B N w w q 9 6 O 4 f p p i e @ + + + 1 4 1 : = @ +   .   1.1.1.1.1.1.1.1.1.1.",
"1.1.1.1.1.1.1.1.1.. o & * * & o . . # 2 e u u y e 4 4 1 1 1 : = + X .   1.1.1.1.1.1.1.1.1.1.1.1.",
"1.1.1.1.1.1.1.1.1.1.1.1.1.1.1.1.1.1.1.1.. X + # @ - # # + X . . . 1.1.1.1.1.1.1.1.1.1.1.1.1.1.1.",
"1.1.1.1.1.1.1.1.1.1.1.1.1.1.1.1.1.1.1.1.1.1.1.1.1.1.1.1.1.1.1.1.1.1.1.1.1.1.1.1.1.1.1.1.1.1.1.1.",
"1.1.1.1.1.1.1.1.1.1.1.1.1.1.1.1.1.1.1.1.1.1.1.1.1.1.1.1.1.1.1.1.1.1.1.1.1.1.1.1.1.1.1.1.1.1.1.1.",
"1.1.1.1.1.1.1.1.1.1.1.1.1.1.1.1.1.1.1.1.1.1.1.1.1.1.1.1.1.1.1.1.1.1.1.1.1.1.1.1.1.1.1.1.1.1.1.1.",
"1.1.1.1.1.1.1.1.1.1.1.1.1.1.1.1.1.1.1.1.1.1.1.1.1.1.1.1.1.1.1.1.1.1.1.1.1.1.1.1.1.1.1.1.1.1.1.1.",
"1.1.1.1.1.1.1.1.1.1.1.1.1.1.1.1.1.1.1.1.1.1.1.1.1.1.1.1.1.1.1.1.1.1.1.1.1.1.1.1.1.1.1.1.1.1.1.1.",
"1.1.1.1.1.1.1.1.1.1.1.1.1.1.1.1.1.1.1.1.1.1.1.1.1.1.1.1.1.1.1.1.1.1.1.1.1.1.1.1.1.1.1.1.1.1.1.1.",
"1.1.1.1.1.1.1.1.1.1.1.1.1.1.1.1.1.1.1.1.1.1.1.1.1.1.1.1.1.1.1.1.1.1.1.1.1.1.1.1.1.1.1.1.1.1.1.1.",
"1.1.1.1.1.1.1.1.1.1.1.1.1.1.1.1.1.1.1.1.1.1.1.1.1.1.1.1.1.1.1.1.1.1.1.1.1.1.1.1.1.1.1.1.1.1.1.1.",
"1.1.1.1.1.1.1.1.1.1.1.1.1.1.1.1.1.1.1.1.1.1.1.1.1.1.1.1.1.1.1.1.1.1.1.1.1.1.1.1.1.1.1.1.1.1.1.1."
};
