/* XPM */
static char *ladybug16[] = {
/* columns rows colors chars-per-pixel */
"16 16 102 2",
"   c #000000",
".  c #000001",
"X  c #000101",
"o  c #010001",
"O  c #020001",
"+  c #030101",
"@  c #050000",
"#  c #060000",
"$  c #060101",
"%  c #070000",
"&  c #070102",
"*  c #040404",
"=  c #040505",
"-  c #050505",
";  c #0F0101",
":  c #0C0D0E",
">  c #120101",
",  c #130101",
"<  c #150101",
"1  c #140203",
"2  c #190202",
"3  c #1A0304",
"4  c #1B0304",
"5  c #1C0202",
"6  c #131414",
"7  c #1B1B1C",
"8  c #1B1C1D",
"9  c #1E1E1F",
"0  c #210303",
"q  c #230303",
"w  c #240303",
"e  c #250405",
"r  c #260405",
"t  c #270405",
"y  c #2D0404",
"u  c #2C0506",
"i  c #310404",
"p  c #340506",
"a  c #360505",
"s  c #380505",
"d  c #390505",
"f  c #380607",
"g  c #3B0607",
"h  c #3E0606",
"j  c #3F0606",
"k  c #2E2E2E",
"l  c #3B3434",
"z  c #400606",
"x  c #430606",
"c  c #450606",
"v  c #420708",
"b  c #480707",
"n  c #4B0707",
"m  c #4C0707",
"M  c #4E0707",
"N  c #4F0808",
"B  c #510909",
"V  c #51090A",
"C  c #520808",
"Z  c #530808",
"A  c #570808",
"S  c #5A0909",
"D  c #5B0909",
"F  c #5D0909",
"G  c #5F0909",
"H  c #4A3132",
"J  c #502C2C",
"K  c #610B0B",
"L  c #630B0B",
"P  c #660A0A",
"I  c #6A0B0B",
"U  c #690C0C",
"Y  c #680F0F",
"T  c #6B0C0C",
"R  c #6E0B0B",
"E  c #6F1010",
"W  c #691A1A",
"Q  c #730C0C",
"!  c #761B1B",
"~  c #7A1616",
"^  c #7C1313",
"/  c #782020",
"(  c #484848",
")  c #4C4C4D",
"_  c #5A4F4F",
"`  c #565657",
"'  c #595959",
"]  c #626262",
"[  c #676767",
"{  c #747474",
"}  c #797979",
"|  c #831010",
" . c #811717",
".. c #813030",
"X. c #922F2F",
"o. c #9F2626",
"O. c #992B2B",
"+. c #BB4D4D",
"@. c #B25151",
"#. c #848484",
"$. c #9B9B9B",
"%. c None",
/* pixels */
"%.%.%.%.%.%.%.%.%.%.%.%.%.%.%.%.",
"%.%.%.%.%.%.%.%.%.%.%.%.%.%.%.%.",
"%.%.%.%.%.%.%.%.%.%.%.%.%.%.%.%.",
"%.%.%.%.%.  4 a a e 1   %.%.%.%.",
"%.%.%.%.$ V P S Z c s 0 $ %.%.%.",
"%.%.%.  v U R Q D V z i ;   %.%.",
"%.%.%.e | ^ !  .R S n a 4   %.%.",
"%.%.* H / o.@...E h n r > $ X %.",
"%.%.) [ _ O.+.X.U N n s q $   %.",
"%.6 } $.] J W ~ K N b y 5 $   %.",
"%.8 { #.' l V T D V z < 1     %.",
"%.- ` ' ( k K D v c s q $   %.%.",
"%.%.* 8 8 : u g e e 4 &   %.%.%.",
"%.%.%.%.%.%.%.%.%.%.%.%.%.%.%.%.",
"%.%.%.%.%.%.%.%.%.%.%.%.%.%.%.%.",
"%.%.%.%.%.%.%.%.%.%.%.%.%.%.%.%."
};
