/* XPM */
static char *ladybird16[] = {
/* columns rows colors chars-per-pixel */
"16 13 164 2",
"   c #000000",
".  c #050504",
"X  c #0B0504",
"o  c #131312",
"O  c #20201E",
"+  c #303021",
"@  c #333231",
"#  c #363635",
"$  c #4A0000",
"%  c #453524",
"&  c #650000",
"*  c #6D0101",
"=  c #7B2F26",
"-  c #4E4D3B",
";  c #525239",
":  c #59593E",
">  c #794033",
",  c #595840",
"<  c #595843",
"1  c #5A5947",
"2  c #5F5F41",
"3  c #5D5D59",
"4  c #606046",
"5  c #646459",
"6  c #686754",
"7  c #6B6A50",
"8  c #6F6F59",
"9  c #72724E",
"0  c #717051",
"q  c #727255",
"w  c #74745D",
"e  c #7F7F55",
"r  c #74746E",
"t  c #75756E",
"y  c #7B7B69",
"u  c #7A7A6D",
"i  c #850A0A",
"p  c #993826",
"a  c #B01715",
"s  c #A93826",
"d  c #945C3E",
"f  c #995F40",
"g  c #896444",
"h  c #8A7750",
"j  c #B14F4D",
"k  c #BA4C4B",
"l  c #A06745",
"z  c #A8635C",
"x  c #AB6464",
"c  c #AD7978",
"v  c #C8150F",
"b  c #CE120E",
"n  c #D0160F",
"m  c #D71C13",
"M  c #DB2D24",
"N  c #D93229",
"B  c #DF302F",
"V  c #D83D30",
"C  c #E90D0A",
"Z  c #ED130F",
"A  c #ED1813",
"S  c #F40000",
"D  c #F40403",
"F  c #F40705",
"G  c #F40907",
"H  c #F30F0C",
"J  c #F70E0B",
"K  c #F90000",
"L  c #F3100C",
"P  c #F11712",
"I  c #E1251D",
"U  c #EC271F",
"Y  c #F0261E",
"T  c #E6342C",
"R  c #EB3026",
"E  c #EC3328",
"W  c #EB3A2F",
"Q  c #EE3A2E",
"!  c #EE3E31",
"~  c #E14E3E",
"^  c #E84D3D",
"/  c #D84945",
"(  c #D65040",
")  c #D45544",
"_  c #D85947",
"`  c #DC5D50",
"'  c #C5775F",
"]  c #E34342",
"[  c #E85C5C",
"{  c #EC705A",
"}  c #88875B",
"|  c #88885B",
" . c #8A895D",
".. c #8C8C5E",
"X. c #8D8D5E",
"o. c #8F8E5F",
"O. c #918056",
"+. c #818165",
"@. c #88887C",
"#. c #929161",
"$. c #989879",
"%. c #B2827E",
"&. c #E98469",
"*. c #E98E71",
"=. c #8A8A87",
"-. c #8F8F87",
";. c #8C8D89",
":. c #979787",
">. c #A29488",
",. c #B79595",
"<. c #ADAC89",
"1. c #A0A09F",
"2. c #BEA080",
"3. c #B3B08D",
"4. c #BFB899",
"5. c #ADADA8",
"6. c #ACACAA",
"7. c #B4B2A7",
"8. c #B9B9B7",
"9. c #BFBFBE",
"0. c #D7BE98",
"q. c #CFBAA7",
"w. c #DCAAA9",
"e. c #D6BBAB",
"r. c #E08F8D",
"t. c #EAA988",
"y. c #EABB96",
"u. c #EABD97",
"i. c #E7A9A8",
"p. c #E9BFBA",
"a. c #E0C19A",
"s. c #F1DBAF",
"d. c #E5E4B7",
"f. c #F5EABC",
"g. c #CCCCCB",
"h. c #CECECD",
"j. c #CFCFCE",
"k. c #D1D0CF",
"l. c #D7D7D6",
"z. c #D9D9D8",
"x. c #DFDFDE",
"c. c #FFCCCC",
"v. c #FEFECB",
"b. c #E1E1E1",
"n. c #E5E5E5",
"m. c #ECECEC",
"M. c #EDEDED",
"N. c #EEEEEE",
"B. c #F0F0EF",
"V. c #F2F2F2",
"C. c #F4F4F3",
"Z. c #F4F4F4",
"A. c #F6F6F6",
"S. c #F7F7F7",
"D. c #F8F8F8",
"F. c #F9F8F8",
"G. c #F9F9F9",
"H. c #FBFBFB",
"J. c #FCFCFC",
"K. c #FDFDFD",
"L. c #FDFEFD",
"P. c #FEFEFE",
"I. c gray100",
"U. c None",
/* pixels */
"U.U.U.I.h.%.j z k 7.h.I.U.U.U.U.",
"U.U.D.>.d.t.G ( D s.0.x I.U.U.U.",
"U.U.c I *.W W v.{ H H D ,.n.S.U.",
"U.I.a R P Y J &.^ y._ ~ p h 0 m.",
"U.x.b E U ! ] [ T y.A D f } o.9.",
"U.x.' f.B i.w.c.r.G Z v  .| ; =.",
"U.5.v M / p.e.q.q.N V g o.4 ;.M.",
"u } s a.) 3.w <.$.= d #.5 7 r Z.",
"h.- h l m > 2.` C & + : +.l.g.D.",
"B.@.< ..O.% $ i & X   =.y r I.U.",
"U.5.2 < 9 3   . 8 1 o n.H.I.I.U.",
"U.A.z.:.0 A.1.# O @ 8.I.U.U.U.U.",
"U.U.M.6 -.I.I.H.V.A.I.U.U.U.U.U."
};
