/* XPM */
static char *ladybird64[] = {
/* columns rows colors chars-per-pixel */
"64 54 257 2",
"   c #000000",
".  c #090101",
"X  c #090907",
"o  c #0D0C0A",
"O  c #1C0404",
"+  c #120A08",
"@  c #13120E",
"#  c #151412",
"$  c #1B1413",
"%  c #1C1B15",
"&  c #1B1B19",
"*  c #260000",
"=  c #280504",
"-  c #201E1A",
";  c #2A1712",
":  c #370000",
">  c #24231C",
",  c #2B2A1E",
"<  c #25241A",
"1  c #252422",
"2  c #282623",
"3  c #2B2A23",
"4  c #2B2A29",
"5  c #302F22",
"6  c #323125",
"7  c #3B3A2A",
"8  c #363429",
"9  c #353432",
"0  c #3C3C32",
"q  c #393938",
"w  c #440000",
"e  c #4D0000",
"r  c #5A0000",
"t  c #560000",
"y  c #431A13",
"u  c #403F3C",
"i  c #4C3427",
"p  c #610000",
"a  c #6D0000",
"s  c #750000",
"d  c #7D0000",
"f  c #761A14",
"g  c #712017",
"h  c #733A2B",
"j  c #43422E",
"k  c #424134",
"l  c #41403E",
"z  c #4D4C35",
"x  c #494938",
"c  c #514F37",
"v  c #55543A",
"b  c #5A5A3E",
"n  c #58563F",
"m  c #664B35",
"M  c #73452F",
"N  c #6D4B35",
"B  c #4D4D4A",
"V  c #474744",
"C  c #52514D",
"Z  c #5E5D41",
"A  c #595846",
"S  c #5A5956",
"D  c #5E5D5B",
"F  c #555553",
"G  c #534A45",
"H  c #615E43",
"J  c #646446",
"K  c #6A6947",
"L  c #6B6A4A",
"P  c #696346",
"I  c #6C6C55",
"U  c #66655A",
"Y  c #716847",
"T  c #72714D",
"R  c #757450",
"E  c #7D7C54",
"W  c #777659",
"Q  c #706F5B",
"!  c #666665",
"~  c #6E6D6B",
"^  c #6C6A67",
"/  c #777667",
"(  c #757471",
")  c #787775",
"_  c #7C7B7A",
"`  c #7A7976",
"'  c #716F6D",
"]  c #8C0000",
"[  c #880705",
"{  c #891C15",
"}  c #920000",
"|  c #9B0000",
" . c #9A1D18",
".. c #90120D",
"X. c #862A1E",
"o. c #872C2B",
"O. c #972B23",
"+. c #9B352A",
"@. c #9A3F31",
"#. c #85382E",
"$. c #AD0000",
"%. c #A80908",
"&. c #B30202",
"*. c #B70A08",
"=. c #B9120E",
"-. c #B61C18",
";. c #B81A14",
":. c #AA1915",
">. c #B7231B",
",. c #A82B24",
"<. c #B82A24",
"1. c #B53F39",
"2. c #A9362E",
"3. c #9A4738",
"4. c #9A503F",
"5. c #A84C3D",
"6. c #B84739",
"7. c #95584F",
"8. c #9E624C",
"9. c #90624C",
"0. c #9C6753",
"q. c #8F7958",
"w. c #877667",
"e. c #8B726F",
"r. c #A34B4B",
"t. c #A65846",
"y. c #B05A50",
"u. c #A7624D",
"i. c #A96B56",
"p. c #B66A55",
"a. c #AF6954",
"s. c #A3716B",
"d. c #C40101",
"f. c #C50D0A",
"g. c #CB0101",
"h. c #C90907",
"j. c #CA0E0B",
"k. c #C9130E",
"l. c #CB1712",
"z. c #D40101",
"x. c #DA0101",
"c. c #D90907",
"v. c #D61B17",
"b. c #D9120E",
"n. c #CB241D",
"m. c #D5231C",
"M. c #C82E25",
"N. c #C5382D",
"B. c #C13E32",
"V. c #E30101",
"C. c #E30C0A",
"Z. c #ED0101",
"A. c #E80807",
"S. c #F40000",
"D. c #FE0000",
"F. c #FD1616",
"G. c #C64839",
"H. c #CB7A61",
"J. c #F76F6F",
"K. c #C56C56",
"L. c #818057",
"P. c #858459",
"I. c #8A8A5D",
"U. c #85846A",
"Y. c #8E8E60",
"T. c #808067",
"R. c #83827E",
"E. c #958864",
"W. c #959564",
"Q. c #989865",
"!. c #9A9779",
"~. c #978D70",
"^. c #A38A72",
"/. c #AA9879",
"(. c #B28F72",
"). c #B49979",
"_. c #AB8064",
"`. c #C39B7C",
"'. c #C78F72",
"]. c #858583",
"[. c #8A8A87",
"{. c #908F8D",
"}. c #9D9C9A",
"|. c #959493",
" X c #9E9E81",
".X c #A79585",
"XX c #B68D8A",
"oX c #A9A988",
"OX c #B6A482",
"+X c #BAA985",
"@X c #BBB38D",
"#X c #BBB894",
"$X c #A1A09F",
"%X c #A5A4A3",
"&X c #ACACAA",
"*X c #A8A8A7",
"=X c #B2B2AE",
"-X c #B4B4B2",
";X c #BDBCBB",
":X c #B8B8B6",
">X c #C19B98",
",X c #CAB995",
"<X c #C8A788",
"1X c #CCABA7",
"2X c #D6AAA9",
"3X c #CEBDB6",
"4X c #E7BBB9",
"5X c #C4C49D",
"6X c #CBC59C",
"7X c #C2C297",
"8X c #D8C29B",
"9X c #CCC9A7",
"0X c #D9CCA4",
"qX c #D4D4AA",
"wX c #DCDAAC",
"eX c #D8D1A7",
"rX c #DDDDB0",
"tX c #C2C2BF",
"yX c #E3D6AC",
"uX c #E0D3A8",
"iX c #EBE4B7",
"pX c #ECEABC",
"aX c #E5E3B6",
"sX c #F2EDBD",
"dX c #F1E7B9",
"fX c #F0F0BF",
"gX c #C4C4C3",
"hX c #C8C8C6",
"jX c #CCCCCA",
"kX c #C8C7C6",
"lX c #D1D1CF",
"zX c #D4D4D2",
"xX c #D7D8D6",
"cX c #DCDDDB",
"vX c #D8D8D6",
"bX c #CFD0CC",
"nX c #DFE0DE",
"mX c #DFE0E0",
"MX c #FECBCB",
"NX c #F5C5C4",
"BX c #F1D3D3",
"VX c #E0E1DF",
"CX c #F4F4C3",
"ZX c #F9F6C5",
"AX c #F8F8C7",
"SX c #FEFECB",
"DX c #F4F4C8",
"FX c #EFEFC1",
"GX c #E3E4E3",
"HX c #EDEDED",
"JX c #E8E9E7",
"KX c #F0F0EF",
"LX c #F3F4F3",
"PX c #F7F8F8",
"IX c #FEFEFE",
"UX c #F8F8F7",
"YX c None",
/* pixels */
"YXYXYXYXYXYXYXYXYXYXYXYXYXYXYXYXYXYXYXYXYXYXYXYXYXYXIXHXKXKXKXKXIXYXYXYXYXYXYXYXYXYXYXYXYXYXYXYXYXYXYXYXYXYXYXYXYXYXYXYXYXYXYXYX",
"YXYXYXYXYXYXYXYXYXYXYXYXYXYXYXYXYXYXYXYXIXGX;X].F q & $ $ $ $ $ $ 1 B ~ $XxXKXYXYXYXYXYXYXYXYXYXYXYXYXYXYXYXYXYXYXYXYXYXYXYXYXYX",
"YXYXYXYXYXYXYXYXYXYXYXYXYXYXYXYXYXIXHX:XD $ * t ] $.g.g.&.&.g.x.z.g.| d ; & 4 ! -XHXYXYXYXYXYXYXYXYXYXYXYXYXYXYXYXYXYXYXYXYXYXYX",
"YXYXYXYXYXYXYXYXYXYXYXYXYXYXYXYXGX( & > I o.D.D.D.D.Z.9.5X9X9.S.D.D.D.V.+XCX7X/ 3 1 ].JXYXYXYXYXYXYXYXYXYXYXYXYXYXYXYXYXYXYXYXYX",
"YXYXYXYXYXYXYXYXYXYXYXYXYXYXLX].# A #XAXSXdXB.D.D.D.x.+XSXSX+Xx.D.D.D.g.qXSXSXSXAX#Xk & |.LXYXYXYXYXYXYXYXYXYXYXYXYXYXYXYXYXYXYX",
"YXYXYXYXYXYXYXYXYXYXYXYXYXvXq 7 5XSXSXSXSXSX,XV.D.D.D.=.5.@.f.D.D.D.D.z.eXSXSXSXSXSXAX~.* F JXYXYXYXYXYXYXYXYXYXYXYXYXYXYXYXYXYX",
"YXYXYXYXYXYXYXYXYXYXYXIXgX% Q FXSXSXSXSXSXSXqXc.D.D.D.D.D.D.D.D.D.D.D.S.'.SXSXSXSXSXSXH.V.e 9 JXIXYXYXYXYXYXYXYXYXYXYXYXYXYXYXYX",
"YXYXYXYXYXYXYXYXYXYXYXkX@ a ,XSXSXSXSXSXSXSX9Xc.D.D.D.D.;.p.i.t.k.D.D.D.v.uXSXSXSXSX8Xb.D.D.r V LXYXYXYXYXYXYXYXYXYXYXYXYXYXYXYX",
"YXYXYXYXYXYXYXYXYXYXGX> ] D.8.SXSXSXSXSXSXSXi.S.D.D.D.6.pXSXSXSXuXM.D.D.D.M.<XaXwX`.m.D.D.D.S.w ^ IXYXYXYXYXYXYXYXYXYXYXYXYXYXYX",
"YXYXYXYXYXYXYXYXYXIXD r D.D.g.(.AXSXSXSXSX`.j.D.D.D.c.eXSXSXSXSXSX<XS.D.D.D.S.f.j.S.D.D.D.D.D.x.= gXIXYXYXYXYXYXYXYXYXYXYXYXYXYX",
"YXYXYXYXYXYXYXYXYXgXO x.D.D.D.A.t.@X6X,Xp.C.D.D.D.D.<.DXSXSXSXSXSXDX*.D.D.D.D.D.D.D.D.D.D.D.D.D.d B PXYXYXYXYXYXYXYXYXYXYXYXYXYX",
"YXYXYXYXYXYXYXYXYXV d S.%.=.D.D.D.V.x.V.D.D.D.D.D.D.<.DXSXSXSXSXSXSX&.D.D.D.D.D.D.D.D.D.D.D.D.D.x.= jXIXYXYXYXYXYXYXYXYXYXYXYXYX",
"YXYXYXYXYXYXYXYXlXO V.+.FXiX-.D.D.D.D.D.D.D.D.D.D.D.k.iXSXSXSXSXSX0XA.D.D.S.S.D.D.D.Z.2.5.c.D.D.D.r C C # X o X 1 ' zXYXYXYXYXYX",
"YXYXYXYXYXYXYXYX_ t D.,.aXwX-.D.D.D.D.D.D.D.D.D.D.D.D.K.ZXSXSXSXdXG.D.C.a.).(.6.S.D. .DXAX4.D.D.D.$.X z E P.P.P.T j # $XIXYXYXYX",
"YXYXYXYXYXYXYXPXq &.D.S.:.k.D.D.D.D.D.Z.V.S.D.D.D.D.D.A.5.#X6X@XN.S.A.`.SXSXSXCXG.D.t.SXSX~.D.D.D.h.L Q.Q.Q.Q.Q.Q.Q.T o zXIXYXYX",
"YXYXYXYXYXYXYXHXX V.D.D.D.D.D.D.D.D.*.oX5Xi.S.D.D.D.D.D.D.V.z.Z.D.D.M.SXSXSXSXSX8XA.+.AXSX0.D.D.D.f Q.Q.Q.Q.Q.Q.Q.Q.Q.8 ` IXYXYX",
"YXYXYXYXYXYXYXkX* S.D.D.D.D.D.D.D.D.0.SXSXAX-.D.D.D.D.D.D.D.D.D.D.D.5.SXSXSXSXSXrXg.V.u._.k.D.D.D.M Q.Q.Q.Q.Q.Q.Q.Q.Q.J q KXIXYX",
"YXYXYXYXYXYXYX%Xw D.D.D.D.D.D.D.D.D.8.SXSXZX-.D.D.D.D.D.D.D.D.D.D.D.G.ZXSXSXSXSX6Xz.D.S.S.D.D.D.D.M Q.Q.Q.Q.Q.Q.Q.Q.Q.T 4 GXIXYX",
"YXYXYXYXYXYXYX[.r D.D.D.D.D.D.D.D.D.=./.6Xp.S.D.D.h.r.r.r.r.:.V.D.D.A.0XSXSXSXSXa.D.D.D.D.D.D.D.D.h L J Z H K Y.Q.Q.Q.L 4 cXIXYX",
"YXYXYXYXYXYXYX) a D.S.M.u.y.<.S.D.D.D.Z.x.D.D.D.C.7.NXMXMXMXNXXX,.D.D.l.OXwXqXp.A.D.D.D.D.D.D.D.h.m Y.Q.Q.Q.Y.P Q.Q.Q.L 2 cXIXYX",
"YXYXYXYXYXYXYX! d S.K.AXSXSXsX6.D.D.D.S.g.x.S.D.%.4XMXMXMXMXMXMX4Xo.D.D.Z.h.z.S.D.D.D.D.D.D.D.z.P Q.Q.Q.Q.Q.Q.A Q.Q.Q.Y.o =XIXYX",
"YXYXYXYXYXYXYX! d l.pXSXSXSXSXyXb.D.D.1.2X>X0.;. .MXMXMXMXMXMXMXMX2X<.D.D.D.D.D.D.D.D.D.D.D.D.X.W.Q.Q.Q.Q.Q.Q.L Z Y.Q.Q.z & _ PX",
"YXYXYXYXYXYXYX) s ,.AXSXSXSXSXpX*.D.f.2XMXMXMX4XG 4XMXMXMXMXMXMXMXMX2Xh.D.D.D.D.D.D.D.D.D.D.S.H Q.Q.Q.Q.Q.Q.Q.Q.< o > < >   @ GX",
"YXYXYXYXYXYXYX[.r l.iXSXSXSXSXuXc.D.2.MXMXMXMXMXyXe.MXMXMXMXMXMXMXMXNXh D.D.D.D.Z.S.D.D.D.D.&.T L H H P E Q.Q.Q.I.# o B F ^ -XLX",
"YXYXYXYXYXYXYX}.e S.y.dXAXSXyXB.D.S.s.MXMXMXMXMXMXXX3XMXMXMXMXMXMXMX4Xw.V.D.k.E.OX/.+.D.D.Z.g T Y.Y.W.Y.T 7 b I.Q.L.% > $XbXVXLX",
"YXYXYXYXYXYXIX` : D.D.>.t.t.m.D.D.D.s.MXMXMXMXMXMXMXe.MXMXMXMXMXMX2X9XpX:.D.5.ZXSXSX!.D.D.f P.Q.Q.Q.Q.Q.Q.v   o < 6 -   ! LXPXIX",
"YXYXYXYXYXYXGX& ; S.D.D.D.D.D.D.D.D.s.MXMXMXMXMXMXMX>Xe.*X2X1X1X,XaXSXSXr.D.z.3.0.8.=.D.*.E Q.Q.Q.Q.Q.Q.Q.E o ` S B B D ;XPXYXYX",
"YXYXYXYXYXUXS , T V.D.D.D.D.S.S.D.D.#.2XMXMXMXMXNX1X9XU.pXpXrXU.S oXSXSX~.D.D.D.D.D.D.V.y Z E Q.Q.Q.E Q.W.W.% _ lXhXgXbXJXPXYXYX",
"YXYXYXYXJXD @ P.Y.%.D.D.f.s.OX/.@.A.O.#X!..X.X.X#XpXSXqX#XSXJ T.3   !.SX+XV.D.D.D.D.d.m P.I.T v I.Q., P.Q.Q.J > GXPXLXLXPXIXYXYX",
"UXgX=X` 2 , P.Q.Q.{ D.x.).SXSXSXDX2.*.aXSXSXrXZ 4 Q CXSX!.SXk AXT.  x SX6Xz.D.D.D.x.m Q.Q.Q.Q.Y.z , o 5 W.Q.W.3 U PXYXYXYXYXYXYX",
"].o - 7 L Q.Q.Q.Q.M D.*.pXSXSXSXSXa.V.OXSXSXA oXx   / SXqX7X- 0 o   I SX9Xs &.D.D.g W.Q.Q.Q.Q.Q.n & ^ % j W.Q.I.@ D LXYXYXYXYXYX",
"&X% P.Q.Q.Q.Q.Q.Q.8 z.V./.SXSXSXFX2.D.+.DXSX0 DX/   j SXAX!.oX%   8 wXSX6X    * ] Y Q.Q.W.W.Q.Q.J 3 gX-X2 > T Q.I.3 4 *XLXYXYXYX",
"PXS 3 P.Q.Q.Q.Q.P.J { D.h.0.`.).+.S.D.V.).SX0 $ X   Q SXSXrXoXpXaXAXSXSXoX      @ Y.Q.Q.J E Q.Q.E # xXLXkXS # % j z o   ) IXYXYX",
"IXGXF # 7 v v c j Q.N V.D.Z.z.x.D.D.D.D.>.yX9Xk @ G aXSXSXSX X@X/.i.8.u.h * O     q.Q.Q., J Q.Q.W.% %XPXLXcX&X' l 6 9 V -XIXYXYX",
"YXPXcX|.V 4 o @ E Q.I.....M b P ..D.D.D.D.i qXSXAXSXSXSXCX^.O.&.S.D.D.D.D.D.d     v Q.T X j Q.Q.Q.z l PXIXPXHXcXjX;X;XjXGXPXYXYX",
"YXIXPXHX-Xx % T Q.Q.Q.n W.Q.Q.Q.P.%.D.D.x.. o U.pXSXAX/. .Z.D.D.D.D.D.D.D.D.*     o b @ # # W.Q.Q.Y.< R.IXYXIXIXLXLXLXKXPXIXYXYX",
"YXYXHXC # 7 P.Q.Q.Q.W.P Q.Q.Q.Q.Q.h D.D.d.      > w.3.v.NXJ.D.D.D.D.D.D.D.}             1 & b Q.Q.Q.L.> D xXPXYXYXYXYXYXYXYXYXYX",
"YXYXGXo Z Q.Q.Q.Q.Q.T L Q.Q.Q.Q.Q.b g.S.V..       a S.F.BXJ.D.D.D.D.D.D.$..             > ].X R Q.Q.Q.P.7 # l [.IXYXYXYXYXYXYXYX",
"YXYXIX&X# 6 v v z < X L.Q.Q.Q.q.L T R P h =       } D.D.D.D.D.D.D.D.x.d .               & gX~ X z R I.I.L.6   4 LXIXYXYXYXYXYXYX",
"YXYXIXPXgXF 2 & 1 # , Q.Q.Q.E L Q.Q.Q.Q.Q.q.@       : s ] } } } d w .                   & lXJX{.9 @ X X @ 3 ~ gXLXIXYXYXYXYXYXYX",
"YXYXYXIXLXvX;X*X{.o L Q.Q.W.Z Q.Q.Q.Q.Q.Q.Q.5                               o           2 xXPXJXjX%X[.].{.%XgXGXLXIXYXYXYXYXYXYX",
"YXYXYXYXIXPXKXJXC 3 Q.Q.Q.K b Q.Q.Q.Q.Q.Q.T X                             G R           V cXIXIXLXJXmXcXVXJXKXPXIXYXYXYXYXYXYXYX",
"YXYXYXYXYXYXIX[.o P.Q.Q.Y.% < Q.Q.Q.J j < .                           X W CXk           _ GXIXYXYXIXIXIXIXIXYXYXYXYXYXYXYXYXYXYX",
"YXYXYXYXYXPX[.# R Q.Q.P., % @ I.Q.Q.7 @ C ) &                 3 8 7 / qXSXwXX         > &XHXIXYXYXYXYXYXYXYXYXYXYXYXYXYXYXYXYXYX",
"YXYXYXYXYX&X  x R T z o 2 R.@ L.Q.Q.v 9 :XlX*X#               6 oXSXSXSXSXU         . ' lXPXYXYXYXYXYXYXYXYXYXYXYXYXYXYXYXYXYXYX",
"YXYXYXYXYXvXV $ # o 4 S |.jX1 L.Q.Q.b 9 mXPXLX*X%               X Q DXaXW           B :XHXIXYXYXYXYXYXYXYXYXYXYXYXYXYXYXYXYXYXYX",
"YXYXYXYXYXIXHXjX*X$X*X;XVXLX> E Q.Q.b 9 mXPXIXLX;X9                 @ X         X B %XGXPXYXYXYXYXYXYXYXYXYXYXYXYXYXYXYXYXYXYXYX",
"YXYXYXYXYXIXPXHXJXJXHXKXIXVX- I.Q.Q.v l GXIXYXIXLXzX_ 2                       $ U %XGXPXIXYXYXYXYXYXYXYXYXYXYXYXYXYXYXYXYXYXYXYX",
"YXYXYXYXYXYXIXIXIXIXIXYXYX].7 Q.Q.Q.7 S GXIXYXYXIXPXJXgX].B - X X       X - B ].:XGXPXIXYXYXYXYXYXYXYXYXYXYXYXYXYXYXYXYXYXYXYXYX",
"YXYXYXYXYXYXYXYXYXYXYXYXHX> R Q.Q.W.@ ].GXYXYXYXYXYXIXLXJXlX:X}.].( ' ' R.}.:XlXHXIXYXYXYXYXYXYXYXYXYXYXYXYXYXYXYXYXYXYXYXYXYXYX",
"YXYXYXYXYXYXYXYXYXYXYXIXF c Q.Q.Q.j > -XKXYXYXYXYXYXYXYXIXPXKXJXGXzXxXxXvXGXKXIXIXYXYXYXYXYXYXYXYXYXYXYXYXYXYXYXYXYXYXYXYXYXYXYX",
"YXYXYXYXYXYXYXYXYXYXYX) % Y.Y.P.x # ) zXIXYXYXYXYXYXYXYXYXYXIXIXIXIXIXPXIXIXIXYXYXYXYXYXYXYXYXYXYXYXYXYXYXYXYXYXYXYXYXYXYXYXYXYX",
"YXYXYXYXYXYXYXYXYXYXYX_ # % # % 4 ) ;XHXIXYXYXYXYXYXYXYXYXYXYXYXYXYXYXYXYXYXYXYXYXYXYXYXYXYXYXYXYXYXYXYXYXYXYXYXYXYXYXYXYXYXYXYX",
"YXYXYXYXYXYXYXYXYXYXYXPXjX}.].[.}.jXHXIXYXYXYXYXYXYXYXYXYXYXYXYXYXYXYXYXYXYXYXYXYXYXYXYXYXYXYXYXYXYXYXYXYXYXYXYXYXYXYXYXYXYXYXYX"
};
