/* XPM */
static char *ladybird48[] = {
/* columns rows colors chars-per-pixel */
"48 40 257 2",
"   c #000000",
".  c #0A0000",
"X  c #090807",
"o  c #0C0C09",
"O  c #100000",
"+  c #100F0B",
"@  c #12120F",
"#  c #151411",
"$  c #1C1B15",
"%  c #1D1C19",
"&  c #181715",
"*  c #350302",
"=  c #380909",
"-  c #391211",
";  c #321919",
":  c #212017",
">  c #25241C",
",  c #29291C",
"<  c #262521",
"1  c #282625",
"2  c #2D2C23",
"3  c #2D2C29",
"4  c #352D28",
"5  c #34332C",
"6  c #3B3B2C",
"7  c #343324",
"8  c #333130",
"9  c #3A3935",
"0  c #3E3D3B",
"q  c #4C0404",
"w  c #530202",
"e  c #5D0705",
"r  c #5C130E",
"t  c #433C3B",
"y  c #513A29",
"u  c #6B0000",
"i  c #630000",
"p  c #691811",
"a  c #700000",
"s  c #7F0000",
"d  c #43422E",
"f  c #444333",
"g  c #44413E",
"h  c #4C4B34",
"j  c #4A4A3B",
"k  c #544E39",
"l  c #55553B",
"z  c #5A593E",
"x  c #7E5C3F",
"c  c #77553B",
"v  c #4D4C4B",
"b  c #474644",
"n  c #504E4C",
"m  c #53524F",
"M  c #5E5D42",
"N  c #5A5947",
"B  c #5D5C5A",
"V  c #575652",
"C  c #605F5E",
"Z  c #7A5351",
"A  c #665845",
"S  c #646343",
"D  c #696847",
"F  c #6C6B4A",
"G  c #63634F",
"H  c #60605E",
"J  c #6E6E59",
"K  c #706F4B",
"L  c #796948",
"P  c #74734E",
"I  c #7C744F",
"U  c #757450",
"Y  c #72725B",
"T  c #7B7751",
"R  c #7C7B54",
"E  c #666563",
"W  c #6D6D6A",
"Q  c #6B6A67",
"!  c #716F6C",
"~  c #71706E",
"^  c #767574",
"/  c #797977",
"(  c #7D7C7A",
")  c #787776",
"_  c #830000",
"`  c #8C0000",
"'  c #910000",
"]  c #9B0000",
"[  c #900C0A",
"{  c #9A1B14",
"}  c #8C241A",
"|  c #8F3123",
" . c #AA0000",
".. c #A50806",
"X. c #A8120E",
"o. c #A61D15",
"O. c #BF0201",
"+. c #B60907",
"@. c #B9100C",
"#. c #BF1D17",
"$. c #BB1F19",
"%. c #B8241E",
"&. c #AF3C2F",
"*. c #B92726",
"=. c #B73328",
"-. c #B03C3A",
";. c #A92927",
":. c #8A422E",
">. c #8C4D3B",
",. c #9A5352",
"<. c #807F56",
"1. c #957B76",
"2. c #B94141",
"3. c #B05946",
"4. c #AC624E",
"5. c #AE6953",
"6. c #AC725C",
"7. c #BE6250",
"8. c #B76B58",
"9. c #B9735C",
"0. c #B57F65",
"q. c #C50000",
"w. c #CC0404",
"e. c #CB0907",
"r. c #CE0C0A",
"t. c #C10B09",
"y. c #C41614",
"u. c #D40302",
"i. c #D20806",
"p. c #D10C09",
"a. c #DD0302",
"s. c #DC0D0A",
"d. c #DB100D",
"f. c #DE1915",
"g. c #C9231C",
"h. c #D9241D",
"j. c #D13A2F",
"k. c #D23F33",
"l. c #CA342D",
"z. c #E40101",
"x. c #EC0101",
"c. c #E40D0B",
"v. c #E2120F",
"b. c #F40100",
"n. c #FE0000",
"m. c #FB1616",
"M. c #FB2E2E",
"N. c #CC4D3D",
"B. c #CF4336",
"V. c #D44235",
"C. c #C45546",
"Z. c #C5624F",
"A. c #CA6E58",
"S. c #C3755E",
"D. c #C07B61",
"F. c #C07271",
"G. c #818156",
"H. c #848359",
"J. c #8A8A5D",
"K. c #888459",
"L. c #8C8C6A",
"P. c #82817F",
"I. c #8D8C71",
"U. c #949463",
"Y. c #989865",
"T. c #939275",
"R. c #9A987B",
"E. c #AF997A",
"W. c #B88A6E",
"Q. c #B2846A",
"!. c #B99979",
"~. c #C28066",
"^. c #C49677",
"/. c #D29376",
"(. c #878684",
"). c #8C8C8A",
"_. c #90908E",
"`. c #959492",
"'. c #9A9A97",
"]. c #9B9B99",
"[. c #AC8F8B",
"{. c #A09F9E",
"}. c #B1938B",
"|. c #A5A484",
" X c #AAA987",
".X c #ADAC8A",
"XX c #A0A09E",
"oX c #B7A484",
"OX c #BBB694",
"+X c #B8B892",
"@X c #B4B391",
"#X c #A6A6A5",
"$X c #ACACAB",
"%X c #AAAAA6",
"&X c #B2B1AE",
"*X c #B4B4B2",
"=X c #BEBEBD",
"-X c #CA9B9A",
";X c #C4A282",
":X c #CDA280",
">X c #C4B18D",
",X c #CAB28F",
"<X c #CCBB93",
"1X c #D1A684",
"2X c #D5B18E",
"3X c #DCB490",
"4X c #D4ACAB",
"5X c #D6B7AB",
"6X c #DCB3B3",
"7X c #CABCA5",
"8X c #EDBDBD",
"9X c #E3BCB6",
"0X c #F0BFBE",
"qX c #C4C39C",
"wX c #CAC29B",
"eX c #DCC69E",
"rX c #D1C79C",
"tX c #CBCBA2",
"yX c #C0C0BE",
"uX c #DCD5AB",
"iX c #DAD9AE",
"pX c #D5D4AA",
"aX c #DEDCB1",
"sX c #E5D8AD",
"dX c #E2DCB0",
"fX c #E3CCA6",
"gX c #E3E3B5",
"hX c #EBEBBC",
"jX c #EAE6B7",
"kX c #F4ECBD",
"lX c #F2F0BF",
"zX c #C4C4C3",
"xX c #CCCCCB",
"cX c #CFD0CF",
"vX c #D0D1CF",
"bX c #D4D5D3",
"nX c #D8D8D7",
"mX c #DCDDDB",
"MX c #F5C4C4",
"NX c #FECBCB",
"BX c #EFEEC0",
"VX c #E0E0DE",
"CX c #F4F3C2",
"ZX c #F7F7C8",
"AX c #F9F9C7",
"SX c #FEFECB",
"DX c #F9F6C7",
"FX c #E1E2E1",
"GX c #E7E8E8",
"HX c #E8E8E7",
"JX c #ECECEB",
"KX c #EFF0EF",
"LX c #F4F4F4",
"PX c #F7F8F8",
"IX c #FEFEFE",
"UX c #F8F8F7",
"YX c None",
/* pixels */
"YXYXYXYXYXYXYXYXYXYXYXYXYXYXYXYXYXIXJXbXzXyXyXyXcXmXPXYXYXYXYXYXYXYXYXYXYXYXYXYXYXYXYXYXYXYXYXYX",
"YXYXYXYXYXYXYXYXYXYXYXYXYXYXLX&XB 4 q w u u u u e e - t ) =XLXYXYXYXYXYXYXYXYXYXYXYXYXYXYXYXYXYX",
"YXYXYXYXYXYXYXYXYXYXYXIXbXQ 5 N X.x.n.n.&.!.W.a.n.n.x.oX@XJ 5 W mXIXYXYXYXYXYXYXYXYXYXYXYXYXYXYX",
"YXYXYXYXYXYXYXYXYXYXLXW f .XAXSX2Xx.n.n.4.gXwXr.n.n.a.aXSXSXZX X6 ) PXYXYXYXYXYXYXYXYXYXYXYXYXYX",
"YXYXYXYXYXYXYXYXYXbXt T.AXSXSXSXSXy.n.n.b.u.z.n.n.n.x.eXSXSXSXSX2Xs b JXYXYXYXYXYXYXYXYXYXYXYXYX",
"YXYXYXYXYXYXYXYXbX; >.SXSXSXSXSXSXg.n.n.n.l.7.C.d.n.n.N.CXAXSXkXV.n. .t LXYXYXYXYXYXYXYXYXYXYXYX",
"YXYXYXYXYXYXYXLX4 w.p.uXSXSXSXSXOXx.n.n.C.DXSXSXfXf.n.n.B.^.^.k.n.n.n.' ! IXYXYXYXYXYXYXYXYXYXYX",
"YXYXYXYXYXYXYX( ` n.n.g.,XhXjX:Xs.n.n.x.eXAXSXSXAXA.n.n.n.n.n.n.n.n.n.n.q xXYXYXYXYXYXYXYXYXYXYX",
"YXYXYXYXYXYXHX- z.$.s.n.b.r.s.b.n.n.n.a.dXSXSXSXSX~.n.n.n.n.n.n.b.n.n.n. .E PXJXGXJXLXIXYXYXYXYX",
"YXYXYXYXYXYX).' =.AX^.n.n.n.n.n.n.n.n.n.:XSXSXSXAXV.n.u.@.z.n.n.5.0.x.n.b.- 8 , , > 2 B VXYXYXYX",
"YXYXYXYXYXIXt z.a.3.g.n.n.n.n.b.n.n.n.n.c.;XBXiXZ.b.C.CXSXuXf.O.CXAX%.n.n.p K.Y.Y.Y.Y.P 3 KXYXYX",
"YXYXYXYXYXLX* n.n.n.n.n.n.z.Q.>Xl.n.n.n.n.b.p.s.n.x.sXSXSXSX/.u.aXBXy.n.b.L Y.Y.Y.Y.Y.U.l `.IXYX",
"YXYXYXYXYXxXe n.n.n.n.n.n.#.ZXSX^.n.n.n.n.n.n.n.n.w.DXSXSXSXoXn.g.=.b.n.a.H.Y.Y.Y.Y.Y.Y.U H UXYX",
"YXYXYXYXYX$X_ n.n.n.n.n.n.a.oXdXB.n.n.y.*.*.#.x.n.b.3XSXSXSX7.n.n.n.n.n.z.K P P U U.Y.Y.U n LXYX",
"YXYXYXYXYX'.' n.V.9.Z.c.n.n.x.a.n.n.e.4XNXNXMX-X*.n.v.^.<XD.x.n.n.n.n.n.o.I U.U.U.K Y.Y.T v KXYX",
"YXYXYXYXYX).] N.AXSXSX1Xb.n.v.2.*.z.-.NXNXNXNXNXfX;.n.b.b.n.n.n.n.n.n.t.K.Y.Y.Y.U.F J.Y.U.: &XIX",
"YXYXYXYXYX`.] !.SXSXSXCXi.b.0.NXNX-XZ NXNXNXNXNXNXMXy.n.n.n.n.n.n.n.n.:.Y.Y.Y.Y.Y.U.> 6 h 2   =X",
"YXYXYXYXYX%X` S.SXSXSXfXz.i.8XNXNXNX4X-XNXNXNXNXNXNX,.n.n.z.p.a.n.n.b.k K L F P U.Y.T X 0 Q `.HX",
"YXYXYXYXYX&Xa x.D.rX1Xh.n.*.NXNXNXNXNX[.MXNXNXNXNX9XOXi.u.<XBXqXu.b.} J.Y.Y.Y.J.: f D z   `.GXPX",
"YXYXYXYXIXm r n.b.x.b.n.n.*.NXNXNXNXNX0X1.4X6X5X7XBXSX=.x.4.!.4.x.X.J.Y.Y.Y.Y.Y.7 b t 9 b =XIXYX",
"YXYXYXYX{.2 >.b.n.b.i.e.b.t.}.6XMXMX5X7X XgXgXJ j +XSX8.n.n.n.n.u.y S H.Y.H.J.Y.D m nXcXnXJXIXYX",
"IXLXnX~ 2 J.R z.b.5.hXhXW.w.wXpXtXR.I.BXCX+XR.tXj # AXW.n.n.n.t.I Y.U.P D f d Y.Y., yXUXIXIXIXYX",
"( < 7 z U.Y.U.X.e.hXSXSXSX@.Q.AXOX! 2 7 ZX+XI.N $ @ AXE. .x.x.c Y.Y.Y.Y.d 9 3 M Y.G.1 yXIXYXYXYX",
"].d Y.Y.Y.Y.K.p x.Q.SXSX>Xz.y.CXI.|.f   BXZX|.G 6 .XSXT.  . r U.Y.J.Y.Y.h ( cXt 7 P G.2 H FXYXYX",
"UXE 6 P H.R M <.a.b.%.%.z.n.b.9.aX$   B SXSXqXiXuX<X<XA     > Y.Y.d U.Y.U B PXVX).0 % % # #XIXYX",
"IXJX_.0 $ + R U.} { :.c @.n.n.u.I.hXaXSXSXaX6...a.x.x.x.q.  X H.R X R Y.U.< mXIXKXnX=X&XyXGXIXYX",
"YXIXmX~ > T Y.Y.F U.Y.Y.R a.n.]   f qXBX6.k.n.n.n.n.n.n._     : # $ h Y.Y.F b JXYXIXUXPXPXUXIXYX",
"YXIX5 h U.Y.Y.U.D Y.Y.Y.Y.{ n. .      [ m.JXM.n.n.n.n.q..         0 < R Y.Y.F 2 ^ =XIXYXYXYXYXYX",
"YXYX*X2 f l f : D Y.Y.H.U L x |       a.b.m.n.n.n.x.` O           0 %X% l R H.D o 3 UXYXYXYXYXYX",
"YXYXIXxXW v b @ U.Y.J.U Y.Y.Y.Y.M     . * w w w * .               b JXzXH 3 < 9 ~ zXLXYXYXYXYXYX",
"YXYXIXUXJXmXV l Y.Y.z Y.Y.Y.Y.Y.l                       N         C KXUXJXbXxXxXmXKXIXYXYXYXYXYX",
"YXYXYXYXIX{., U.Y.U X J.Y.G.d > X                   @ T. X        _.LXYXIXIXUXIXIXIXYXYXYXYXYXYX",
"YXYXYXYX'.> L.U.S $ 1 F Y.R : P.P.X           7 I.|.hXAXk       3 zXIXYXYXYXYXYXYXYXYXYXYXYXYXYX",
"YXYXYXYXE $ : $ 5 (.) S Y.J.3 mXLX`.X           9 iXAXI.      # `.GXIXYXYXYXYXYXYXYXYXYXYXYXYXYX",
"YXYXYXYXPXxX$X#XyXVX_.S U.J.5 GXIXLX#X<           o #       # P.nXIXYXYXYXYXYXYXYXYXYXYXYXYXYXYX",
"YXYXYXYXIXPXLXLXIXIXV H.Y.H.9 GXYXIXLXbX) 1 X           X 0 `.nXPXIXYXYXYXYXYXYXYXYXYXYXYXYXYXYX",
"YXYXYXYXYXYXYXYXYXbX6 Y.Y.z B JXYXYXIXIXJXbX%X/ B v n E _.yXGXIXYXYXYXYXYXYXYXYXYXYXYXYXYXYXYXYX",
"YXYXYXYXYXYXYXYXLXt H.Y.J.% XXPXYXYXYXYXIXIXPXJXFXmXmXVXLXPXIXYXYXYXYXYXYXYXYXYXYXYXYXYXYXYXYXYX",
"YXYXYXYXYXYXYXYX(.: z h > Q nXIXYXYXYXYXYXYXYXYXIXIXIXIXYXYXYXYXYXYXYXYXYXYXYXYXYXYXYXYXYXYXYXYX",
"YXYXYXYXYXYXYXYXJX].W W `.cXPXYXYXYXYXYXYXYXYXYXYXYXYXYXYXYXYXYXYXYXYXYXYXYXYXYXYXYXYXYXYXYXYXYX"
};
