/* XPM */
static char *ladybug64[] = {
/* columns rows colors chars-per-pixel */
"64 64 135 2",
"   c #000000",
".  c #020408",
"X  c #07090C",
"o  c #0C0101",
"O  c #0B0508",
"+  c #090C0F",
"@  c #090D11",
"#  c #0F1013",
"$  c #130101",
"%  c #15060A",
"&  c #1B0202",
"*  c #1A0609",
"=  c #111315",
"-  c #131619",
";  c #1B1C1D",
":  c #1C1E22",
">  c #230303",
",  c #20070C",
"<  c #25080A",
"1  c #2B0404",
"2  c #2B090B",
"3  c #340505",
"4  c #33090C",
"5  c #3C0505",
"6  c #3B0B0D",
"7  c #3C0B10",
"8  c #3C1113",
"9  c #252525",
"0  c #24272B",
"q  c #2A2626",
"w  c #2C2C2C",
"e  c #2F3236",
"r  c #302B2B",
"t  c #3D2222",
"y  c #343434",
"u  c #3C3C3D",
"i  c #383B40",
"p  c #3F4145",
"a  c #430606",
"s  c #440C0D",
"d  c #4B0707",
"f  c #4E0808",
"g  c #431B1B",
"h  c #510707",
"j  c #540808",
"k  c #5B0909",
"l  c #5B0D11",
"z  c #501010",
"x  c #483A3A",
"c  c #573737",
"v  c #523F3F",
"b  c #5D3535",
"n  c #630A0A",
"m  c #6B0B0B",
"M  c #640E13",
"N  c #631515",
"B  c #6C1212",
"V  c #730C0C",
"C  c #7B0C0C",
"Z  c #731212",
"A  c #731A1A",
"S  c #7B1414",
"D  c #7C1919",
"F  c #642B2B",
"G  c #6F2626",
"H  c #6A2A2A",
"J  c #673434",
"K  c #7A2424",
"L  c #782D2D",
"P  c #444444",
"I  c #434549",
"U  c #4B4B4B",
"Y  c #564848",
"T  c #5C4545",
"R  c #535353",
"E  c #535559",
"W  c #5B5B5B",
"Q  c #6E5151",
"!  c #745555",
"~  c #636363",
"^  c #666769",
"/  c #6B6B6B",
"(  c #737373",
")  c #7B7B7B",
"_  c #840D0D",
"`  c #890E0E",
"'  c #811313",
"]  c #831C1C",
"[  c #8C1313",
"{  c #8B1A1A",
"}  c #911717",
"|  c #941B1B",
" . c #852222",
".. c #832A2A",
"X. c #8C2121",
"o. c #8D2B2B",
"O. c #883C3C",
"+. c #942323",
"@. c #932A2A",
"#. c #9C2424",
"$. c #9B2B2B",
"%. c #9C3434",
"&. c #A22A2A",
"*. c #A53232",
"=. c #A53A3A",
"-. c #AB3535",
";. c #AA3C3C",
":. c #B03A3A",
">. c #964B4B",
",. c #9D4343",
"<. c #9F5C5C",
"1. c #A44D4D",
"2. c #B44343",
"3. c #B34848",
"4. c #BB4545",
"5. c #BC4A4A",
"6. c #B75959",
"7. c #BC5454",
"8. c #B16262",
"9. c #C24F4F",
"0. c #C35353",
"q. c #CA5656",
"w. c #CB5A5A",
"e. c #CF6262",
"r. c #D46363",
"t. c #818181",
"y. c #8C8C8C",
"u. c #939393",
"i. c #9B9B9B",
"p. c #A4A4A4",
"a. c #AEAEAE",
"s. c #B4B4B4",
"d. c #BABABA",
"f. c #C4C4C4",
"g. c None",
/* pixels */
"g.g.g.g.g.g.g.g.g.g.g.g.g.g.g.g.g.g.g.g.g.g.g.g.g.g.g.g.g.g.g.g.g.g.g.g.g.g.g.g.g.g.g.g.g.g.g.g.g.g.g.g.g.g.g.g.g.g.g.g.g.g.g.g.",
"g.g.g.g.g.g.g.g.g.g.g.g.g.g.g.g.g.g.g.g.g.g.g.g.g.g.g.g.g.g.g.g.g.g.g.g.g.g.g.g.g.g.g.g.g.g.g.g.g.g.g.g.g.g.g.g.g.g.g.g.g.g.g.g.",
"g.g.g.g.g.g.g.g.g.g.g.g.g.g.g.g.g.g.g.g.g.g.g.g.g.g.g.g.g.g.g.g.g.g.g.g.g.g.g.g.g.g.g.g.g.g.g.g.g.g.g.g.g.g.g.g.g.g.g.g.g.g.g.g.",
"g.g.g.g.g.g.g.g.g.g.g.g.g.g.g.g.g.g.g.g.g.g.g.g.g.g.g.g.g.g.g.g.g.g.g.g.g.g.g.g.g.g.g.g.g.g.g.g.g.g.g.g.g.g.g.g.g.g.g.g.g.g.g.g.",
"g.g.g.g.g.g.g.g.g.g.g.g.g.g.g.g.g.g.g.g.g.g.g.g.g.g.g.g.g.g.g.g.g.g.g.g.g.g.g.g.g.g.g.g.g.g.g.g.g.g.g.g.g.g.g.g.g.g.g.g.g.g.g.g.",
"g.g.g.g.g.g.g.g.g.g.g.g.g.g.g.g.g.g.g.g.g.g.g.g.g.g.g.g.g.g.g.g.g.g.g.g.g.g.g.g.g.g.g.g.g.g.g.g.g.g.g.g.g.g.g.g.g.g.g.g.g.g.g.g.",
"g.g.g.g.g.g.g.g.g.g.g.g.g.g.g.g.g.g.g.g.g.g.g.g.g.g.g.g.g.g.g.g.g.g.g.g.g.g.g.g.g.g.g.g.g.g.g.g.g.g.g.g.g.g.g.g.g.g.g.g.g.g.g.g.",
"g.g.g.g.g.g.g.g.g.g.g.g.g.g.g.g.g.g.g.g.g.g.g.g.g.g.g.g.g.g.g.g.g.g.g.g.g.g.g.g.g.g.g.g.g.g.g.g.g.g.g.g.g.g.g.g.g.g.g.g.g.g.g.g.",
"g.g.g.g.g.g.g.g.g.g.g.g.g.g.g.g.g.g.g.g.g.g.g.g.g.g.g.g.g.g.g.g.g.g.g.g.g.g.g.g.g.g.g.g.g.g.g.g.g.g.g.g.g.g.g.g.g.g.g.g.g.g.g.g.",
"g.g.g.g.g.g.g.g.g.g.g.g.g.g.g.g.g.g.g.g.g.g.g.g.g.g.g.g.g.g.g.g.g.g.g.g.g.g.g.g.g.g.g.g.g.g.g.g.g.g.g.g.g.g.g.g.g.g.g.g.g.g.g.g.",
"g.g.g.g.g.g.g.g.g.g.g.g.g.g.g.g.g.g.g.g.g.g.g.g.g.g.g.g.g.g.g.g.g.g.g.g.g.g.g.g.g.g.g.g.g.g.g.g.g.g.g.g.g.g.g.g.g.g.g.g.g.g.g.g.",
"g.g.g.g.g.g.g.g.g.g.g.g.g.g.g.g.g.g.g.g.g.g.g.g.g.g.g.g.g.g.g.g.g.g.g.g.g.g.g.g.g.g.g.g.g.g.g.g.g.g.g.g.g.g.g.g.g.g.g.g.g.g.g.g.",
"g.g.g.g.g.g.g.g.g.g.g.g.g.g.g.g.g.g.g.g.g.g.g.g.g.g.g.g.g.g.g.. % % * * $ % o . g.g.g.g.g.g.g.g.g.g.g.g.g.g.g.g.g.g.g.g.g.g.g.g.",
"g.g.g.g.g.g.g.g.g.g.g.g.g.g.g.g.g.g.g.g.g.g.g.g.g.g.g.O > 3 6 d d 5 a 5 1 > 1 > $ O   g.g.g.g.g.g.g.g.g.g.g.g.g.g.g.g.g.g.g.g.g.",
"g.g.g.g.g.g.g.g.g.g.g.g.g.g.g.g.g.g.g.g.g.g.g.g.g.% 4 a h k h a 5 a a 1 1 1 1 > > > * O . g.g.g.g.g.g.g.g.g.g.g.g.g.g.g.g.g.g.g.",
"g.g.g.g.g.g.g.g.g.g.g.g.g.g.g.g.g.g.g.g.g.g.g.O s n j 1 k n k a 5 3 3 a a 5 3 5 5 3 1 $ $ O o g.g.g.g.g.g.g.g.g.g.g.g.g.g.g.g.g.",
"g.g.g.g.g.g.g.g.g.g.g.g.g.g.g.g.g.g.g.g.g.g., M d n m m m n h 5 a h 5 j j a 1 5 5 5 3 1 > & $ .   g.g.g.g.g.g.g.g.g.g.g.g.g.g.g.",
"g.g.g.g.g.g.g.g.g.g.g.g.g.g.g.g.g.g.g.g.  7 m n d V V m n a a k n n k d a h f d a a 5 3 1 > & $ o . g.g.g.g.g.g.g.g.g.g.g.g.g.g.",
"g.g.g.g.g.g.g.g.g.g.g.g.g.g.g.g.g.g.g.. f V V C V V m k 5 k m d 3 k n k k h d 1 5 a 5 3 3 1 > & o     g.g.g.g.g.g.g.g.g.g.g.g.g.",
"g.g.g.g.g.g.g.g.g.g.g.g.g.g.g.g.g.g.O k V V C C C V j a n m m h 5 k n k k j 5 $ & a 5 5 3 1 > & $ o . . g.g.g.g.g.g.g.g.g.g.g.g.",
"g.g.g.g.g.g.g.g.g.g.g.g.g.g.g.g.g.o d V C C _ C C h h V V V V m n m n n k k h h d a 5 5 5 1 1 > & $   .   g.g.g.g.g.g.g.g.g.g.g.",
"g.g.g.g.g.g.g.g.g.g.g.g.g.g.g.g.. 6 > C k a C C j j C C C V V m m n 5 > 5 j j h f a $ > 5 3 1 1 & $ o   . g.g.g.g.g.g.g.g.g.g.g.",
"g.g.g.g.g.g.g.g.g.g.g.g.g.g.g.g.2 1 3 _ 5 3 ' k k C C C C V V V m m a 1 5 k k h f d 5 5 5 3 1 1 > & $     . g.g.g.g.g.g.g.g.g.g.",
"g.g.g.g.g.g.g.g.g.g.g.g.g.g.g.O k > m _ C D B k V C _ C C V V V V m n n n k j j h f a a 5 3 3 1 o o $ o   .   g.g.g.g.g.g.g.g.g.",
"g.g.g.g.g.g.g.g.g.g.g.g.g.g.g.s m j _ ` [ K j n $ 2 V ' S S V V m m m n n k k j h d a a 5 5 3 1 $ o $ $     . g.g.g.g.g.g.g.g.g.",
"g.g.g.g.g.g.g.g.g.g.g.g.g.g.o Z _ _ _ ` $.j _ V 2 6 Z { { ' S V V m n n n k k j h f d a 5 5 3 1 > > & $ o     . g.g.g.g.g.g.g.g.",
"g.g.g.g.g.g.g.g.g.g.g.g.g.g.4 C _ ` ` #.M _ [ [ { X.+.+.X.] ' Z V V n n n k k j h f d d a 5 3 3 1 > & $ o     . g.g.g.g.g.g.g.g.",
"g.g.g.g.g.g.g.g.g.g.g.g.g.g.M _ _ ` [ ..V ` } | $.*.*.*.$.+.] D V m m n k k h j h f d a 5 5 3 > & $ & $ $     o g.g.g.g.g.g.g.g.",
"g.g.g.g.g.g.g.g.g.g.g.g.g.% C _ ` ` +.n ` } | &.;.2.2.2.=.$.X.] D m m n d & $ > d f d a 5 5 & o   o $ $ o       . g.g.g.g.g.g.g.",
"g.g.g.g.g.g.g.g.g.g.g.g.g.8 F H _ [ A _ [ | &.-.9.0.0.1.,.%.@. .D Z B n d & o > f f d a a 1 o o   o o & $ o     . g.g.g.g.g.g.g.",
"g.g.g.g.g.g.g.g.g.g.g.  0 E R R Y L m [ [ #.*.4.q.w.<.! T b .. .D m m n n j h h h h d d a > o o o $ & & o         g.g.g.g.g.g.g.",
"g.g.g.g.g.g.g.g.g.g.. p W W W W R R D [ } #.-.9.q.r.8.! T c L  .D Z m n n k k k h f d a 5 3 & & $ & > $ $ o     . g.g.g.g.g.g.g.",
"g.g.g.g.g.g.g.g.g.  P ~ ~ ~ ~ W W R Y [ } #.-.4.q.e.e.6.>.O.o. .D Z m n n k k j h f d a a 5 3 3 1 1 > $ $       o . g.g.g.g.g.g.",
"g.g.g.g.g.g.g.g.g.u / / / ^ ~ W W R R J } #.*.2.9.w.w.7.3.=.@. .S Z B n n k k j h f d a a 5 3 3 1 > > & $ o       . g.g.g.g.g.g.",
"g.g.g.g.g.g.g.g.: / / / / / / ~ W W R U K | &.-.2.5.5.3.;.%.o.] S B m k j j j j h f d a a 5 3 3 1 > & & $ o       . g.g.g.g.g.g.",
"g.g.g.g.g.g.g.g.E ( ( ( / ( / ~ W W R R v { +.&.*.=.;.=.%.@. .D B B j 1 & > 5 j h f d a a 5 3 3 1 > > & $ $       . g.g.g.g.g.g.",
"g.g.g.g.g.g.g.; ( ( ( ( ) t.t.( / W W R P G { X.$.$.$.$.@. .] S Z B k 4 > 1 5 j h d d a 5 5 3 3 1 1 & & $ o       . g.g.g.g.g.g.",
"g.g.g.g.g.g.g.I ( ( ( t.y.i.i.y.( ~ W U U x S A A  .X. . .D S Z m m n n k j j j f d a a a 5 3 3 1 > > $ $         . g.g.g.g.g.g.",
"g.g.g.g.g.g.g.^ ( ) ) y.p.d.s.i.) / W U U u g < 2 8 N D ' S Z Z m n n k k k j j f d a 5 5 3 1 & & & & & o       . g.g.g.g.g.g.g.",
"g.g.g.g.g.g.X ( ( ( ) y.a.f.d.p.t./ W R U u w % < 2 2 l Z Z m m m n n k k j j f f f a a 3 & o     $ & $ o       . g.g.g.g.g.g.g.",
"g.g.g.g.g.g.# ( ( ( ) y.p.s.a.u.) / W R P u y 2 & > < s m V m m m n k k k j h h d d a 5 &   o o   $ & $ o       . g.g.g.g.g.g.g.",
"g.g.g.g.g.g.- / ( ( ( t.u.u.u.t.( W R U P u y g a 1 3 k m m m m k n n k k j h h d a 5 1 o     o $ & $ $         . g.g.g.g.g.g.g.",
"g.g.g.g.g.g.= / ( ( ( ( ) ) ( / ~ W R U P u y t V n n m m m n n n k k k j j f f d a a 3 & $ $ & & & $ o       . g.g.g.g.g.g.g.g.",
"g.g.g.g.g.g.  ~ / / / / / / ~ ~ W R U P u u y r V V V m m m n n n k k k j h f d a a 5 3 3 1 1 > & & $ o     . . g.g.g.g.g.g.g.g.",
"g.g.g.g.g.g.g.P ^ ^ ^ ^ ~ ~ W W R U U P u u r q m m m V n n n n k k k j j f d a a a 5 3 3 1 1 > & $ o       . g.g.g.g.g.g.g.g.g.",
"g.g.g.g.g.g.g.- ~ ~ ~ ~ ~ W W R R U U P u y w 9 z m n n n n n k k k j j f f d a a 5 3 3 3 1 > & $         . g.g.g.g.g.g.g.g.g.g.",
"g.g.g.g.g.g.g.g.y ~ W W W W R R U U P u y y q ; s n n n n n k j a 5 3 5 a d a a 5 5 3 3 1 > > $ $     . . g.g.g.g.g.g.g.g.g.g.g.",
"g.g.g.g.g.g.g.g.  y W W R R R U U P P u y w 9 ; 6 n n n k k j 3 $ o o o & 1 a 5 5 3 1 1 > & & $     .   g.g.g.g.g.g.g.g.g.g.g.g.",
"g.g.g.g.g.g.g.g.g.  - i U U U U P u u y y 9 : = 2 k k k k k j 5 & o $ O o 1 5 3 3 3 1 > * $ $   o .   g.g.g.g.g.g.g.g.g.g.g.g.g.",
"g.g.g.g.g.g.g.g.g.g.g.  @ : w y y e w q ; - X X 5 j j k j j j d 5 1 1 1 1 5 3 3 1 1 > > $ o o . . g.g.g.g.g.g.g.g.g.g.g.g.g.g.g.",
"g.g.g.g.g.g.g.g.g.g.g.g.g.g.g.. . . . . . g.g.g.g.X & 2 5 a a a a a 5 5 5 3 1 1 > $ O . . . g.g.g.g.g.g.g.g.g.g.g.g.g.g.g.g.g.g.",
"g.g.g.g.g.g.g.g.g.g.g.g.g.g.g.g.g.g.g.g.g.g.g.g.g.g.g.g.g.. O % $ % * % $ O X o . . g.g.g.g.g.g.g.g.g.g.g.g.g.g.g.g.g.g.g.g.g.g.",
"g.g.g.g.g.g.g.g.g.g.g.g.g.g.g.g.g.g.g.g.g.g.g.g.g.g.g.g.g.g.g.g.g.g.g.g.g.g.g.g.g.g.g.g.g.g.g.g.g.g.g.g.g.g.g.g.g.g.g.g.g.g.g.g.",
"g.g.g.g.g.g.g.g.g.g.g.g.g.g.g.g.g.g.g.g.g.g.g.g.g.g.g.g.g.g.g.g.g.g.g.g.g.g.g.g.g.g.g.g.g.g.g.g.g.g.g.g.g.g.g.g.g.g.g.g.g.g.g.g.",
"g.g.g.g.g.g.g.g.g.g.g.g.g.g.g.g.g.g.g.g.g.g.g.g.g.g.g.g.g.g.g.g.g.g.g.g.g.g.g.g.g.g.g.g.g.g.g.g.g.g.g.g.g.g.g.g.g.g.g.g.g.g.g.g.",
"g.g.g.g.g.g.g.g.g.g.g.g.g.g.g.g.g.g.g.g.g.g.g.g.g.g.g.g.g.g.g.g.g.g.g.g.g.g.g.g.g.g.g.g.g.g.g.g.g.g.g.g.g.g.g.g.g.g.g.g.g.g.g.g.",
"g.g.g.g.g.g.g.g.g.g.g.g.g.g.g.g.g.g.g.g.g.g.g.g.g.g.g.g.g.g.g.g.g.g.g.g.g.g.g.g.g.g.g.g.g.g.g.g.g.g.g.g.g.g.g.g.g.g.g.g.g.g.g.g.",
"g.g.g.g.g.g.g.g.g.g.g.g.g.g.g.g.g.g.g.g.g.g.g.g.g.g.g.g.g.g.g.g.g.g.g.g.g.g.g.g.g.g.g.g.g.g.g.g.g.g.g.g.g.g.g.g.g.g.g.g.g.g.g.g.",
"g.g.g.g.g.g.g.g.g.g.g.g.g.g.g.g.g.g.g.g.g.g.g.g.g.g.g.g.g.g.g.g.g.g.g.g.g.g.g.g.g.g.g.g.g.g.g.g.g.g.g.g.g.g.g.g.g.g.g.g.g.g.g.g.",
"g.g.g.g.g.g.g.g.g.g.g.g.g.g.g.g.g.g.g.g.g.g.g.g.g.g.g.g.g.g.g.g.g.g.g.g.g.g.g.g.g.g.g.g.g.g.g.g.g.g.g.g.g.g.g.g.g.g.g.g.g.g.g.g.",
"g.g.g.g.g.g.g.g.g.g.g.g.g.g.g.g.g.g.g.g.g.g.g.g.g.g.g.g.g.g.g.g.g.g.g.g.g.g.g.g.g.g.g.g.g.g.g.g.g.g.g.g.g.g.g.g.g.g.g.g.g.g.g.g.",
"g.g.g.g.g.g.g.g.g.g.g.g.g.g.g.g.g.g.g.g.g.g.g.g.g.g.g.g.g.g.g.g.g.g.g.g.g.g.g.g.g.g.g.g.g.g.g.g.g.g.g.g.g.g.g.g.g.g.g.g.g.g.g.g.",
"g.g.g.g.g.g.g.g.g.g.g.g.g.g.g.g.g.g.g.g.g.g.g.g.g.g.g.g.g.g.g.g.g.g.g.g.g.g.g.g.g.g.g.g.g.g.g.g.g.g.g.g.g.g.g.g.g.g.g.g.g.g.g.g.",
"g.g.g.g.g.g.g.g.g.g.g.g.g.g.g.g.g.g.g.g.g.g.g.g.g.g.g.g.g.g.g.g.g.g.g.g.g.g.g.g.g.g.g.g.g.g.g.g.g.g.g.g.g.g.g.g.g.g.g.g.g.g.g.g."
};
