/* XPM */
static char *ladybird32[] = {
/* columns rows colors chars-per-pixel */
"32 27 239 2",
"   c #010000",
".  c #080807",
"X  c #0D0D0A",
"o  c #12120E",
"O  c #161611",
"+  c #181711",
"@  c #1D1D16",
"#  c #250000",
"$  c #2A0000",
"%  c #2C2A1F",
"&  c #222220",
"*  c #2A2922",
"=  c #292828",
"-  c #333326",
";  c #39372F",
":  c #3C3C2B",
">  c #3B3B36",
",  c #3D3C39",
"<  c #570000",
"1  c #43271F",
"2  c #403F2F",
"3  c #523A2D",
"4  c #583A39",
"5  c #6C0000",
"6  c #740000",
"7  c #760F0F",
"8  c #741515",
"9  c #743E2B",
"0  c #42412E",
"q  c #454433",
"w  c #4A4A34",
"e  c #4A493A",
"r  c #5B4239",
"t  c #515037",
"y  c #53533A",
"u  c #5C5C3F",
"i  c #72553A",
"p  c #474641",
"a  c #484742",
"s  c #4A4943",
"d  c #545344",
"f  c #52514D",
"g  c #5C5C42",
"h  c #575754",
"j  c #585754",
"k  c #595854",
"l  c #605F5D",
"z  c #6F5757",
"x  c #6F5856",
"c  c #715554",
"v  c #666545",
"b  c #686746",
"n  c #6F6E4B",
"m  c #62615B",
"M  c #776A47",
"N  c #72724D",
"B  c #767651",
"V  c #77765F",
"C  c #7C725D",
"Z  c #7C7B54",
"A  c #666662",
"S  c #737262",
"D  c #7C7A61",
"F  c #747472",
"G  c #7A7A76",
"H  c #7B7B78",
"J  c #8C0A08",
"K  c #940000",
"L  c #9C0000",
"P  c #92110D",
"I  c #9B2318",
"U  c #AC0302",
"Y  c #B10000",
"T  c #BE0000",
"R  c #BA1C13",
"E  c #A8231A",
"W  c #B0281B",
"Q  c #B92217",
"!  c #A23425",
"~  c #8A4932",
"^  c #985238",
"/  c #8C5F41",
"(  c #826143",
")  c #806A48",
"_  c #836450",
"`  c #83724D",
"'  c #807C55",
"]  c #827876",
"[  c #807F7D",
"{  c #BE6551",
"}  c #BD745D",
"|  c #C40000",
" . c #CA0000",
".. c #C51813",
"X. c #CB1714",
"o. c #C81913",
"O. c #D60303",
"+. c #D40907",
"@. c #D00A08",
"#. c #D90604",
"$. c #DD0806",
"%. c #DB0E0B",
"&. c #DC120E",
"*. c #D41A17",
"=. c #D21D1C",
"-. c #DE1A14",
";. c #DA1E19",
":. c #D9251D",
">. c #CC342A",
",. c #D42C23",
"<. c #D33026",
"1. c #D53328",
"2. c #D43F32",
"3. c #DD3D31",
"4. c #E40302",
"5. c #E50B09",
"6. c #ED0101",
"7. c #EB0D0B",
"8. c #E41D17",
"9. c #F50101",
"0. c #F40807",
"q. c #F20B09",
"w. c #FE0000",
"e. c #E53A2E",
"r. c #C74F3E",
"t. c #CF4D3D",
"y. c #D24234",
"u. c #D64A3A",
"i. c #DC4639",
"p. c #DD4D3E",
"a. c #E24436",
"s. c #C95343",
"d. c #C95848",
"f. c #CF5150",
"g. c #CE5957",
"h. c #D65947",
"j. c #D25D49",
"k. c #DD5A47",
"l. c #C36752",
"z. c #C76854",
"x. c #D7634E",
"c. c #D76651",
"v. c #D36955",
"b. c #DD725B",
"n. c #C66766",
"m. c #C76B69",
"M. c #C77C63",
"N. c #D06D6C",
"B. c #838157",
"V. c #848459",
"C. c #8C8C5E",
"Z. c #87876D",
"A. c #8F8F60",
"S. c #89896E",
"D. c #8D8D71",
"F. c #908F60",
"G. c #908E74",
"H. c #949463",
"J. c #989765",
"K. c #989865",
"L. c #9A997A",
"P. c #C6896E",
"I. c #D59174",
"U. c #DE9376",
"Y. c #CFA07F",
"T. c #848281",
"R. c #888686",
"E. c #888886",
"W. c #8E8D8C",
"Q. c #948D8C",
"!. c #90908E",
"~. c #969695",
"^. c #989894",
"/. c #AD8C8A",
"(. c #A69586",
"). c #A49B83",
"_. c #ACAB8A",
"`. c #A2A29F",
"'. c #BFAE9A",
"]. c #BBBA95",
"[. c #A4A4A2",
"{. c #AEAEAD",
"}. c #B1B1AF",
"|. c #B3B3B2",
" X c #BEBFBE",
".X c #C08988",
"XX c #CD8B8B",
"oX c #CD9B9A",
"OX c #D18A8A",
"+X c #DD9F80",
"@X c #D39998",
"#X c #CDA082",
"$X c #CEB08C",
"%X c #CBB792",
"&X c #CDBC99",
"*X c #D3A584",
"=X c #D2AA87",
"-X c #DBA484",
";X c #CBB9A2",
":X c #D6ADAC",
">X c #F49D9D",
",X c #E6BF99",
"<X c #ECBDBD",
"1X c #CAC79F",
"2X c #CCC9A2",
"3X c #C0C0BF",
"4X c #D7C7AF",
"5X c #D7CEA5",
"6X c #D1D1A7",
"7X c #D4D4A9",
"8X c #E4C39C",
"9X c #E2CFA5",
"0X c #E9D2A8",
"qX c #E4DEB0",
"wX c #E6E2B4",
"eX c #EFE6B8",
"rX c #ECEBBC",
"tX c #C5C5C3",
"yX c #CBCBCA",
"uX c #CFD0CF",
"iX c #D0CFCF",
"pX c #D3D4D3",
"aX c #D7D8D7",
"sX c #D8D8D7",
"dX c #DCDCDB",
"fX c #F2C4C2",
"gX c #F9C7C7",
"hX c #FECBCB",
"jX c #F4EFC0",
"kX c #F5F5C4",
"lX c #F8F6C5",
"zX c #FBF9C7",
"xX c #FEFECB",
"cX c #E3E4E3",
"vX c #EBEBEB",
"bX c #EFF0F0",
"nX c #F3F4F3",
"mX c #FEFEFE",
"MX c None",
/* pixels */
"MXMXMXMXMXMXMXMXMXMXmXuX[.R.T.T.Q.{.dXmXMXMXMXMXMXMXMXMXMXMXMXMX",
"MXMXMXMXMXMXMXMXpXG 4 L  ...l.X.4.T C S H dXMXMXMXMXMXMXMXMXMXMX",
"MXMXMXMXMXMXnXH D.rXzX3.w.,.Y.,.w.4.rXxXrXD ] mXMXMXMXMXMXMXMXMX",
"MXMXMXMXMXnX4 1XxXxXxXv.w.w.:.<.6.w.U.xXxXU.| z mXMXMXMXMXMXMXMX",
"MXMXMXMXmXz O.M.xXxXeX:.w.i.lXxX-Xw.q.c.c.0.w.| Q.mXMXMXMXMXMXMX",
"MXMXMXMXtXL #.w.y.j.8.w.w.I.xXxXxX$.w.w.w.w.w.w.8 nXMXMXMXMXMXMX",
"MXMXMXMXz ..wX%.w.w.w.w.w.k.xXxX8X6.y.1.w.s.l.w.T > q 0 d `.mXMX",
"MXMXMXmX7 w.$.w.w.,.s.w.w.w.y.j.7.b.xXxXa.Y.&Xw.+.C.K.K.K.y pXMX",
"MXMXMXsXL w.w.w.w.$XzX%.w.w.w.w.w.-XxXxXv.-.:.w.Q K.K.K.K.B.W.mX",
"MXMXMXtXY 7.1.7.w.,.u.w.*.XXXXg.5.e.qX9X8.w.w.w.E Z Z Z K.B.T.mX",
"MXMXMX|.U 0XxX8X9.7.f.=.m.hXhXhX@X7.6.6.w.w.w.#.C.K.K.Z V.H.a dX",
"MXMXMX XP lXxXrX5.N.hXgX/.hXhXhXhXn.w.w.w.w.w.! ' Z H.K.- * , [.",
"MXMXMXtXL h.=Xp.w.oXhXhX<X:XhXhXfX;X4.} 5X>.#.( H.H.v : u + |.nX",
"MXMXmXm I w.w.9.w./.hXhXfX(.4X'._.xX>.&.>.4.i C.K.H.F.a !.!.cXMX",
"vXyXA n ^ w.P.5Xd.} 5X).D.kX7XZ.* ].j.w.9.~ H.Z v : J.t yXmXmXMX",
"k g C.K.M O.wXxX*X>.lXD.- _.2Xe X 7X_ 6 I H.H.K.0 H q C.e }.mXMX",
"yXq N N n R *.r.5.9.*Xg @ 7XlX].%X$X3   w J.u J.t dX Xf 0 & yXMX",
"mXsXk % H.( / ' W w.J L.zXwXz.@.w.w.w.$ + g @ J.V.F mXnXdXsXnXMX",
"MXW.t H.J.B K.K.` 6.5   1 ;.>Xw.w.w.K       > g J.N m }.mXMXMXMX",
"MXvXk : * t K.B.V.V.i   # U |  .Y <         F H q 0 : k mXMXMXMX",
"MXmXnXyXe A.C.B J.K.A.X             + @     E.nXpX|. XcXmXMXMXMX",
"MXMXmXE.b H.: y K.: , .       . @ d 2Xo   . 3XmXmXmXmXMXMXMXMXMX",
"MXMXcX* q ; T.e K.q aX~..     X Z.kXV     l vXMXMXMXMXMXMXMXMXMX",
"MXMXmXcXtXpXvXy K.e vXmX|.=       .   . h sXmXMXMXMXMXMXMXMXMXMX",
"MXMXMXmXmXmX[.B H.s nXMXmXcX[.k , > f ~.cXmXMXMXMXMXMXMXMXMXMXMX",
"MXMXMXMXMXdXd H.t E.mXMXMXMXmXnXvXvXvXmXmXMXMXMXMXMXMXMXMXMXMXMX",
"MXMXMXMXMXdXA f T.cXmXMXMXMXMXMXMXMXMXMXMXMXMXMXMXMXMXMXMXMXMXMX"
};
