/* XPM */
static char *ladybug32[] = {
/* columns rows colors chars-per-pixel */
"32 32 84 1",
"  c #000000",
". c #0C0101",
"X c #0E0F10",
"o c #130202",
"O c #130508",
"+ c #1B0203",
"@ c #121315",
"# c #171819",
"$ c #230304",
"% c #2B0405",
"& c #2C0608",
"* c #2C0C0C",
"= c #2A1515",
"- c #340404",
"; c #330608",
": c #3B0505",
"> c #3F0608",
", c #3E0808",
"< c #212222",
"1 c #292929",
"2 c #2F3133",
"3 c #362323",
"4 c #332B2B",
"5 c #323232",
"6 c #373839",
"7 c #3C3D3D",
"8 c #430606",
"9 c #440809",
"0 c #4C0707",
"q c #540808",
"w c #5C0909",
"e c #5A1212",
"r c #523C3C",
"t c #5C3E3E",
"y c #640B0B",
"u c #6B0B0B",
"i c #740D0D",
"p c #7B0D0D",
"a c #751414",
"s c #741C1C",
"d c #7C1515",
"f c #7F1B1B",
"g c #663737",
"h c #7C2727",
"j c #434344",
"k c #4B4B4C",
"l c #5D4646",
"z c #535354",
"x c #5A5A5A",
"c c #5E5F60",
"v c #646464",
"b c #6C6C6C",
"n c #747474",
"m c #7F7F7F",
"M c #860D0D",
"N c #801313",
"B c #811A1A",
"V c #8C1313",
"C c #8E1C1C",
"Z c #961D1D",
"A c #832424",
"S c #8B2222",
"D c #8B2828",
"F c #952626",
"G c #9C2B2B",
"H c #9D3434",
"J c #9E3838",
"K c #A12B2B",
"L c #AF3F3F",
"P c #B23C3C",
"I c #8C5959",
"U c #9D4242",
"Y c #AF4242",
"T c #B24A4A",
"R c #BA4646",
"E c #C45A5A",
"W c #CC5A5A",
"Q c #848484",
"! c #898989",
"~ c #959595",
"^ c #9F9F9F",
"/ c #ABABAB",
"( c #B4B4B4",
") c None",
/* pixels */
"))))))))))))))))))))))))))))))))",
"))))))))))))))))))))))))))))))))",
"))))))))))))))))))))))))))))))))",
"))))))))))))))))))))))))))))))))",
"))))))))))))))))))))))))))))))))",
"))))))))))))))))))))))))))))))))",
"))))))))))))) o$&%+O  ))))))))))",
"))))))))))) &9w0::---+. ))))))))",
")))))))))).qwuw0w0088-$o )))))))",
")))))))))+upiwww0wq--:%+. ))))))",
"))))))))Oqypwuiiy0q00%-%+  )))))",
"))))))) ;ueuipiiu0qq08:%O.  ))))",
")))))));iMBu*dNiuyyq00:%+O  ))))",
")))))))yMCpVFGSfiyyq00:-++. ))))",
"))))))OsMdVKRTJSpy-+00:o o.  )))",
")))))@kxlNZPWItAaywq00-oo+.  )))",
"))))XcvvzgZPWTUDaywwq0:-%+.  )))",
"))))znbvxzhKTYHSaq:008:-%$.  )))",
")))#nn!QbzrBDFSaiq,000:-$+.  )))",
")))6nQ(/nzj=*eaaywwq08%oo+.  )))",
")))jnm^~bzj3&,uuywqq0:..oO   )))",
")))6bnnbxkj4uuuyywq08-$++. X))))",
")))#vvcxzj61yuyywq008:%$o   ))))",
"))))2xxzjr5<qyw0$$-9:%$+   )))))",
")))) @5775<@9wq0$+%:&$+   ))))))",
")))))))    ) .$&&&$O.. )))))))))",
"))))))))))))))))))))))))))))))))",
"))))))))))))))))))))))))))))))))",
"))))))))))))))))))))))))))))))))",
"))))))))))))))))))))))))))))))))",
"))))))))))))))))))))))))))))))))",
"))))))))))))))))))))))))))))))))"
};
